<svg width="1923" height="627" viewBox="0 0 1923 627" fill="none" xmlns="http://www.w3.org/2000/svg">
<g clip-path="url(#clip0_24_2)">
<g clip-path="url(#clip1_24_2)">
<g clip-path="url(#clip2_24_2)">
<mask id="path-1-inside-1_24_2" fill="white">
<path d="M974 67L1248 67V103L974 103V67Z"/>
</mask>
<rect width="263" height="36" transform="translate(975 73)" fill="#343434"/>
<rect width="6" height="33" transform="translate(986 70)" fill="#555555"/>
<rect width="6" height="33" transform="translate(998 70)" fill="#555555"/>
<rect width="6" height="33" transform="translate(1010 70)" fill="#555555"/>
<rect width="6" height="33" transform="translate(1022 70)" fill="#555555"/>
<rect width="6" height="33" transform="translate(1034 70)" fill="#555555"/>
<rect width="6" height="33" transform="translate(1046 70)" fill="#555555"/>
<rect width="6" height="33" transform="translate(1058 70)" fill="#555555"/>
<rect width="6" height="33" transform="translate(1070 70)" fill="#555555"/>
<rect width="6" height="33" transform="translate(1082 70)" fill="#555555"/>
<rect width="6" height="33" transform="translate(1094 70)" fill="#555555"/>
<rect width="6" height="33" transform="translate(1106 70)" fill="#555555"/>
<rect width="6" height="33" transform="translate(1118 70)" fill="#555555"/>
<rect width="6" height="33" transform="translate(1130 70)" fill="#555555"/>
<rect width="6" height="33" transform="translate(1142 70)" fill="#555555"/>
<rect width="6" height="33" transform="translate(1154 70)" fill="#555555"/>
<rect width="6" height="33" transform="translate(1166 70)" fill="#555555"/>
<rect width="6" height="33" transform="translate(1178 70)" fill="#555555"/>
<rect width="6" height="33" transform="translate(1190 70)" fill="#555555"/>
<rect width="6" height="33" transform="translate(1202 70)" fill="#555555"/>
<rect width="6" height="33" transform="translate(1214 70)" fill="#555555"/>
<rect width="6" height="33" transform="translate(1226 70)" fill="#555555"/>
<rect width="6" height="33" transform="translate(1238 70)" fill="#555555"/>
</g>
<path d="M974 103H968V111H974V103ZM1248 95L974 95V111L1248 111V95ZM980 103V67H968V103H980Z" fill="#555555" mask="url(#path-1-inside-1_24_2)"/>
<mask id="path-3-inside-2_24_2" fill="white">
<path d="M0 67H976V627H0V67Z"/>
</mask>
<path d="M0 67H976V627H0V67Z" fill="#343434"/>
<path d="M0 67V63H-4V67H0ZM0 627H-4V631H0V627ZM0 71H976V63H0V71ZM976 623H0V631H976V623ZM4 627V67H-4V627H4Z" fill="#555555" mask="url(#path-3-inside-2_24_2)"/>
<mask id="path-5-inside-3_24_2" fill="white">
<path d="M1201.97 109.526L1245.99 65.5097L1275.69 95.2082L1231.67 139.225L1201.97 109.526Z"/>
</mask>
<path d="M1201.97 109.526L1245.99 65.5097L1275.69 95.2082L1231.67 139.225L1201.97 109.526Z" fill="#343434"/>
<path d="M1204.23 111.789L1248.25 67.7724L1243.73 63.2469L1199.71 107.264L1204.23 111.789Z" fill="#555555" mask="url(#path-5-inside-3_24_2)"/>
<mask id="path-7-inside-4_24_2" fill="white">
<path d="M1245 67H1923V627H1245V67Z"/>
</mask>
<path d="M1245 67H1923V627H1245V67Z" fill="#343434"/>
<path d="M1923 67H1927V63H1923V67ZM1923 627V631H1927V627H1923ZM1245 71H1923V63H1245V71ZM1919 67V627H1927V67H1919ZM1923 623H1245V631H1923V623Z" fill="#555555" mask="url(#path-7-inside-4_24_2)"/>
<mask id="path-9-inside-5_24_2" fill="white">
<path d="M975 99H1474V627H975V99Z"/>
</mask>
<path d="M975 99H1474V627H975V99Z" fill="#343434"/>
<path d="M1474 623H975V631H1474V623Z" fill="#555555" mask="url(#path-9-inside-5_24_2)"/>
</g>
<mask id="path-11-inside-6_24_2" fill="white">
<path d="M889 623V71H893V623H889Z"/>
</mask>
<path d="M889 623V71H893V623H889Z" fill="#343434"/>
<path d="M893 623V71H885V623H893ZM889 71V623H897V71H889Z" fill="#555555" mask="url(#path-11-inside-6_24_2)"/>
<g clip-path="url(#clip3_24_2)">
<mask id="path-13-inside-7_24_2" fill="white">
<path d="M1639 79L1877 79V615H1639V79Z"/>
</mask>
<path d="M1639 79L1877 79V615H1639V79Z" fill="#343434"/>
<rect width="238" height="468" transform="translate(1639 113)" fill="#242124"/>
</g>
<path d="M1639 83L1877 83V75L1639 75V83ZM1877 611H1639V619H1877V611Z" fill="#555555" mask="url(#path-13-inside-7_24_2)"/>
<mask id="path-15-inside-8_24_2" fill="white">
<path d="M1605 113H1640V615H1609C1606.79 615 1605 613.209 1605 611V113Z"/>
</mask>
<path d="M1605 113H1640V615H1609C1606.79 615 1605 613.209 1605 611V113Z" fill="#343434"/>
<path d="M1605 113H1640H1605ZM1640 619H1609C1604.58 619 1601 615.418 1601 611H1609H1640V619ZM1609 619C1604.58 619 1601 615.418 1601 611V113H1609V611V619ZM1640 113V615V113Z" fill="#555555" mask="url(#path-15-inside-8_24_2)"/>
<g clip-path="url(#clip4_24_2)">
<rect x="1617" y="591" width="12" height="12" rx="6" fill="#343434"/>
<rect x="1622" y="591" width="2" height="12" fill="#555555"/>
<rect x="1617" y="596" width="12" height="2" fill="#555555"/>
</g>
<rect x="1617.5" y="591.5" width="11" height="11" rx="5.5" stroke="#343434"/>
<g clip-path="url(#clip5_24_2)">
<rect x="1617" y="603" width="12" height="12" rx="6" transform="rotate(-90 1617 603)" fill="#555555"/>
<rect x="1617" y="598" width="2" height="12" transform="rotate(-90 1617 598)" fill="#343434"/>
<rect x="1622" y="603" width="12" height="2" transform="rotate(-90 1622 603)" fill="#343434"/>
</g>
<rect x="1617.5" y="602.5" width="11" height="11" rx="5.5" transform="rotate(-90 1617.5 602.5)" stroke="#555555"/>
<mask id="path-25-inside-9_24_2" fill="white">
<path d="M1876 79H1907C1909.21 79 1911 80.7909 1911 83V581H1876V79Z"/>
</mask>
<path d="M1876 79H1907C1909.21 79 1911 80.7909 1911 83V581H1876V79Z" fill="#343434"/>
<path d="M1876 75H1907C1911.42 75 1915 78.5817 1915 83H1907H1876V75ZM1911 581H1876H1911ZM1876 581V79V581ZM1907 75C1911.42 75 1915 78.5817 1915 83V581H1907V83V75Z" fill="#555555" mask="url(#path-25-inside-9_24_2)"/>
<g clip-path="url(#clip6_24_2)">
<rect x="1887" y="91" width="12" height="12" rx="6" fill="#343434"/>
<rect x="1892" y="91" width="2" height="12" fill="#555555"/>
<rect x="1887" y="96" width="12" height="2" fill="#555555"/>
</g>
<rect x="1887.5" y="91.5" width="11" height="11" rx="5.5" stroke="#343434"/>
<g clip-path="url(#clip7_24_2)">
<rect x="1887" y="103" width="12" height="12" rx="6" transform="rotate(-90 1887 103)" fill="#555555"/>
<rect x="1887" y="98" width="2" height="12" transform="rotate(-90 1887 98)" fill="#343434"/>
<rect x="1892" y="103" width="12" height="2" transform="rotate(-90 1892 103)" fill="#343434"/>
</g>
<rect x="1887.5" y="102.5" width="11" height="11" rx="5.5" transform="rotate(-90 1887.5 102.5)" stroke="#555555"/>
<mask id="path-35-inside-10_24_2" fill="white">
<path d="M1605 112.941L1638.94 79L1672.88 112.941L1638.94 146.882L1605 112.941Z"/>
</mask>
<path d="M1605 112.941L1638.94 79L1672.88 112.941L1638.94 146.882L1605 112.941Z" fill="#343434"/>
<path d="M1609.03 116.972L1642.97 83.0305L1634.91 74.9695L1600.97 108.911L1609.03 116.972ZM1671.47 111.527L1637.53 145.468L1640.36 148.297L1674.3 114.355L1671.47 111.527Z" fill="#555555" mask="url(#path-35-inside-10_24_2)"/>
<g clip-path="url(#clip8_24_2)">
<rect x="1629" y="103" width="12" height="12" rx="6" fill="#343434"/>
<rect x="1634" y="103" width="2" height="12" fill="#555555"/>
<rect x="1629" y="108" width="12" height="2" fill="#555555"/>
</g>
<rect x="1629.5" y="103.5" width="11" height="11" rx="5.5" stroke="#343434"/>
<g clip-path="url(#clip9_24_2)">
<rect x="1629" y="115" width="12" height="12" rx="6" transform="rotate(-90 1629 115)" fill="#555555"/>
<rect x="1629" y="110" width="2" height="12" transform="rotate(-90 1629 110)" fill="#343434"/>
<rect x="1634" y="115" width="12" height="2" transform="rotate(-90 1634 115)" fill="#343434"/>
</g>
<rect x="1629.5" y="114.5" width="11" height="11" rx="5.5" transform="rotate(-90 1629.5 114.5)" stroke="#555555"/>
<mask id="path-45-inside-11_24_2" fill="white">
<path d="M1843 580.941L1876.94 547L1910.88 580.941L1876.94 614.882L1843 580.941Z"/>
</mask>
<path d="M1843 580.941L1876.94 547L1910.88 580.941L1876.94 614.882L1843 580.941Z" fill="#343434"/>
<path d="M1844.41 582.355L1878.36 548.414L1875.53 545.586L1841.59 579.527L1844.41 582.355ZM1906.85 576.911L1872.91 610.852L1880.97 618.913L1914.91 584.972L1906.85 576.911Z" fill="#555555" mask="url(#path-45-inside-11_24_2)"/>
<g clip-path="url(#clip10_24_2)">
<rect x="1874.88" y="578.88" width="12" height="12" rx="6" fill="#343434"/>
<rect x="1879.88" y="578.88" width="2" height="12" fill="#555555"/>
<rect x="1874.88" y="583.88" width="12" height="2" fill="#555555"/>
</g>
<rect x="1875.38" y="579.38" width="11" height="11" rx="5.5" stroke="#343434"/>
<g clip-path="url(#clip11_24_2)">
<rect x="1875" y="591" width="12" height="12" rx="6" transform="rotate(-90 1875 591)" fill="#555555"/>
<rect x="1875" y="586" width="2" height="12" transform="rotate(-90 1875 586)" fill="#343434"/>
<rect x="1880" y="591" width="12" height="2" transform="rotate(-90 1880 591)" fill="#343434"/>
</g>
<rect x="1875.5" y="590.5" width="11" height="11" rx="5.5" transform="rotate(-90 1875.5 590.5)" stroke="#555555"/>
<rect width="2" height="437" transform="translate(1638 145)" fill="#555555"/>
<rect width="2" height="436" transform="translate(1876 112)" fill="#555555"/>
<rect width="207" height="2" transform="translate(1671 112)" fill="#555555"/>
<rect width="206" height="2" transform="translate(1638 580)" fill="#555555"/>
<g clip-path="url(#clip12_24_2)">
<mask id="path-55-inside-12_24_2" fill="white">
<path d="M12 581L12 113H548V581H12Z"/>
</mask>
<path d="M12 581L12 113H548V581H12Z" fill="#343434"/>
<rect width="467" height="468" transform="matrix(0 -1 1 0 46 581)" fill="#242124"/>
<g clip-path="url(#clip13_24_2)">
<rect x="24" y="353" width="12" height="12" rx="6" transform="rotate(-90 24 353)" fill="#555555"/>
<rect x="24" y="348" width="2" height="12" transform="rotate(-90 24 348)" fill="#343434"/>
<rect x="29" y="353" width="12" height="2" transform="rotate(-90 29 353)" fill="#343434"/>
</g>
<rect x="24.5" y="352.5" width="11" height="11" rx="5.5" transform="rotate(-90 24.5 352.5)" stroke="#555555"/>
<g clip-path="url(#clip14_24_2)">
<rect x="524" y="353" width="12" height="12" rx="6" transform="rotate(-90 524 353)" fill="#555555"/>
<rect x="524" y="348" width="2" height="12" transform="rotate(-90 524 348)" fill="#343434"/>
<rect x="529" y="353" width="12" height="2" transform="rotate(-90 529 353)" fill="#343434"/>
</g>
<rect x="524.5" y="352.5" width="11" height="11" rx="5.5" transform="rotate(-90 524.5 352.5)" stroke="#555555"/>
</g>
<path d="M16 581L16 113H8L8 581H16ZM544 113V581H552V113H544Z" fill="#555555" mask="url(#path-55-inside-12_24_2)"/>
<g clip-path="url(#clip15_24_2)">
<mask id="path-65-inside-13_24_2" fill="white">
<path d="M46 615V580H548V611C548 613.209 546.209 615 544 615H46Z"/>
</mask>
<path d="M46 615V580H548V611C548 613.209 546.209 615 544 615H46Z" fill="#343434"/>
<g clip-path="url(#clip16_24_2)">
<rect x="524" y="603" width="12" height="12" rx="6" transform="rotate(-90 524 603)" fill="#555555"/>
<rect x="524" y="598" width="2" height="12" transform="rotate(-90 524 598)" fill="#343434"/>
<rect x="529" y="603" width="12" height="2" transform="rotate(-90 529 603)" fill="#343434"/>
</g>
<rect x="524.5" y="602.5" width="11" height="11" rx="5.5" transform="rotate(-90 524.5 602.5)" stroke="#555555"/>
</g>
<path d="M46 615V580V615ZM552 580V611C552 615.418 548.418 619 544 619V611V580H552ZM552 611C552 615.418 548.418 619 544 619H46V611H544H552ZM46 580H548H46Z" fill="#555555" mask="url(#path-65-inside-13_24_2)"/>
<g clip-path="url(#clip17_24_2)">
<mask id="path-71-inside-14_24_2" fill="white">
<path d="M12 114V83C12 80.7909 13.7909 79 16 79H544C546.209 79 548 80.7909 548 83V114H12Z"/>
</mask>
<path d="M12 114V83C12 80.7909 13.7909 79 16 79H544C546.209 79 548 80.7909 548 83V114H12Z" fill="#343434"/>
<g clip-path="url(#clip18_24_2)">
<rect x="24" y="103" width="12" height="12" rx="6" transform="rotate(-90 24 103)" fill="#555555"/>
<rect x="24" y="98" width="2" height="12" transform="rotate(-90 24 98)" fill="#343434"/>
<rect x="29" y="103" width="12" height="2" transform="rotate(-90 29 103)" fill="#343434"/>
</g>
<rect x="24.5" y="102.5" width="11" height="11" rx="5.5" transform="rotate(-90 24.5 102.5)" stroke="#555555"/>
<g clip-path="url(#clip19_24_2)">
<rect x="524" y="103" width="12" height="12" rx="6" transform="rotate(-90 524 103)" fill="#555555"/>
<rect x="524" y="98" width="2" height="12" transform="rotate(-90 524 98)" fill="#343434"/>
<rect x="529" y="103" width="12" height="2" transform="rotate(-90 529 103)" fill="#343434"/>
</g>
<rect x="524.5" y="102.5" width="11" height="11" rx="5.5" transform="rotate(-90 524.5 102.5)" stroke="#555555"/>
</g>
<path d="M8 114V83C8 78.5817 11.5817 75 16 75V83V114H8ZM544 75C548.418 75 552 78.5817 552 83V114H544V83V75ZM548 114H12H548ZM8 83C8 78.5817 11.5817 75 16 75H544C548.418 75 552 78.5817 552 83H544H16H8Z" fill="#555555" mask="url(#path-71-inside-14_24_2)"/>
<mask id="path-81-inside-15_24_2" fill="white">
<path d="M45.9412 615L12 581.059L45.9412 547.118L79.8823 581.059L45.9412 615Z"/>
</mask>
<path d="M45.9412 615L12 581.059L45.9412 547.118L79.8823 581.059L45.9412 615Z" fill="#343434"/>
<path d="M49.9717 610.969L16.0305 577.028L7.96953 585.089L41.9107 619.031L49.9717 610.969ZM44.5269 548.532L78.4681 582.473L81.2965 579.645L47.3554 545.704L44.5269 548.532Z" fill="#555555" mask="url(#path-81-inside-15_24_2)"/>
<g clip-path="url(#clip20_24_2)">
<rect x="36" y="591" width="12" height="12" rx="6" transform="rotate(-90 36 591)" fill="#555555"/>
<rect x="36" y="586" width="2" height="12" transform="rotate(-90 36 586)" fill="#343434"/>
<rect x="41" y="591" width="12" height="2" transform="rotate(-90 41 591)" fill="#343434"/>
</g>
<rect x="36.5" y="590.5" width="11" height="11" rx="5.5" transform="rotate(-90 36.5 590.5)" stroke="#555555"/>
<rect width="2" height="438" transform="matrix(0 -1 1 0 78 582)" fill="#555555"/>
<rect width="2" height="471" transform="matrix(0 -1 1 0 45 114)" fill="#555555"/>
<rect width="437" height="2" transform="matrix(0 -1 1 0 45 549)" fill="#555555"/>
<rect width="470" height="2" transform="matrix(0 -1 1 0 279 582)" fill="#555555"/>
<rect width="470" height="2" transform="matrix(0 -1 1 0 514 582)" fill="#555555"/>
<g clip-path="url(#clip21_24_2)">
<mask id="path-87-inside-16_24_2" fill="white">
<path d="M594 79L832 79V341H594V79Z"/>
</mask>
<path d="M594 79L832 79V341H594V79Z" fill="#343434"/>
<rect width="238" height="194" transform="translate(594 113)" fill="#242124"/>
</g>
<path d="M594 83L832 83V75L594 75V83ZM832 337H594V345H832V337Z" fill="#555555" mask="url(#path-87-inside-16_24_2)"/>
<mask id="path-89-inside-17_24_2" fill="white">
<path d="M560 83C560 80.7909 561.791 79 564 79H595V341H564C561.791 341 560 339.209 560 337V83Z"/>
</mask>
<path d="M560 83C560 80.7909 561.791 79 564 79H595V341H564C561.791 341 560 339.209 560 337V83Z" fill="#343434"/>
<path d="M556 83C556 78.5817 559.582 75 564 75H595V83H564H556ZM595 345H564C559.582 345 556 341.418 556 337H564H595V345ZM564 345C559.582 345 556 341.418 556 337V83C556 78.5817 559.582 75 564 75V83V337V345ZM595 79V341V79Z" fill="#555555" mask="url(#path-89-inside-17_24_2)"/>
<g clip-path="url(#clip22_24_2)">
<rect x="572" y="317" width="12" height="12" rx="6" fill="#555555"/>
<rect x="577" y="317" width="2" height="12" fill="#343434"/>
<rect x="572" y="322" width="12" height="2" fill="#343434"/>
</g>
<g clip-path="url(#clip23_24_2)">
<rect x="572" y="329" width="12" height="12" rx="6" transform="rotate(-90 572 329)" fill="#555555"/>
<rect x="572" y="324" width="2" height="12" transform="rotate(-90 572 324)" fill="#343434"/>
<rect x="577" y="329" width="12" height="2" transform="rotate(-90 577 329)" fill="#343434"/>
</g>
<rect x="572.5" y="328.5" width="11" height="11" rx="5.5" transform="rotate(-90 572.5 328.5)" stroke="#555555"/>
<g clip-path="url(#clip24_24_2)">
<rect x="572" y="91.0001" width="12" height="12" rx="6" fill="#555555"/>
<rect x="577" y="91.0001" width="2" height="12" fill="#343434"/>
<rect x="572" y="96.0001" width="12" height="2" fill="#343434"/>
</g>
<g clip-path="url(#clip25_24_2)">
<rect x="572" y="103" width="12" height="12" rx="6" transform="rotate(-90 572 103)" fill="#555555"/>
<rect x="572" y="98" width="2" height="12" transform="rotate(-90 572 98)" fill="#343434"/>
<rect x="577" y="103" width="12" height="2" transform="rotate(-90 577 103)" fill="#343434"/>
</g>
<rect x="572.5" y="102.5" width="11" height="11" rx="5.5" transform="rotate(-90 572.5 102.5)" stroke="#555555"/>
<mask id="path-105-inside-18_24_2" fill="white">
<path d="M831 79H862C864.209 79 866 80.7909 866 83V307H831V79Z"/>
</mask>
<path d="M831 79H862C864.209 79 866 80.7909 866 83V307H831V79Z" fill="#343434"/>
<path d="M831 75H862C866.418 75 870 78.5817 870 83H862H831V75ZM866 307H831H866ZM831 307V79V307ZM862 75C866.418 75 870 78.5817 870 83V307H862V83V75Z" fill="#555555" mask="url(#path-105-inside-18_24_2)"/>
<g clip-path="url(#clip26_24_2)">
<rect x="842" y="91" width="12" height="12" rx="6" fill="#555555"/>
<rect x="847" y="91" width="2" height="12" fill="#343434"/>
<rect x="842" y="96" width="12" height="2" fill="#343434"/>
</g>
<g clip-path="url(#clip27_24_2)">
<rect x="842" y="103" width="12" height="12" rx="6" transform="rotate(-90 842 103)" fill="#555555"/>
<rect x="842" y="98" width="2" height="12" transform="rotate(-90 842 98)" fill="#343434"/>
<rect x="847" y="103" width="12" height="2" transform="rotate(-90 847 103)" fill="#343434"/>
</g>
<rect x="842.5" y="102.5" width="11" height="11" rx="5.5" transform="rotate(-90 842.5 102.5)" stroke="#555555"/>
<mask id="path-114-inside-19_24_2" fill="white">
<path d="M798 306.94L831.941 272.999L865.882 306.94L831.941 340.881L798 306.94Z"/>
</mask>
<path d="M798 306.94L831.941 272.999L865.882 306.94L831.941 340.881L798 306.94Z" fill="#343434"/>
<path d="M799.414 308.354L833.355 274.413L830.527 271.585L796.586 305.526L799.414 308.354ZM861.852 302.909L827.911 336.851L835.972 344.912L869.913 310.97L861.852 302.909Z" fill="#555555" mask="url(#path-114-inside-19_24_2)"/>
<g clip-path="url(#clip28_24_2)">
<rect x="829.88" y="304.879" width="12" height="12" rx="6" fill="#555555"/>
<rect x="834.88" y="304.879" width="2" height="12" fill="#343434"/>
<rect x="829.88" y="309.879" width="12" height="2" fill="#343434"/>
</g>
<g clip-path="url(#clip29_24_2)">
<rect x="830" y="317" width="12" height="12" rx="6" transform="rotate(-90 830 317)" fill="#555555"/>
<rect x="830" y="312" width="2" height="12" transform="rotate(-90 830 312)" fill="#343434"/>
<rect x="835" y="317" width="12" height="2" transform="rotate(-90 835 317)" fill="#343434"/>
</g>
<rect x="830.5" y="316.5" width="11" height="11" rx="5.5" transform="rotate(-90 830.5 316.5)" stroke="#555555"/>
<rect width="2" height="196" transform="translate(593 112)" fill="#555555"/>
<rect width="2" height="162" transform="translate(831 112)" fill="#555555"/>
<rect width="240" height="2" transform="translate(593 112)" fill="#555555"/>
<rect width="206" height="2" transform="translate(593 306)" fill="#555555"/>
<g clip-path="url(#clip30_24_2)">
<mask id="path-123-inside-20_24_2" fill="white">
<path d="M594 615H832V353H594V615Z"/>
</mask>
<path d="M594 615H832V353H594V615Z" fill="#343434"/>
<rect width="238" height="194" transform="matrix(1 0 0 -1 594 581)" fill="#242124"/>
</g>
<path d="M594 611H832V619H594V611ZM832 357H594V349H832V357Z" fill="#555555" mask="url(#path-123-inside-20_24_2)"/>
<mask id="path-125-inside-21_24_2" fill="white">
<path d="M560 611C560 613.209 561.791 615 564 615H595V353H564C561.791 353 560 354.791 560 357V611Z"/>
</mask>
<path d="M560 611C560 613.209 561.791 615 564 615H595V353H564C561.791 353 560 354.791 560 357V611Z" fill="#343434"/>
<path d="M556 611C556 615.418 559.582 619 564 619H595V611H564H556ZM595 349H564C559.582 349 556 352.582 556 357H564H595V349ZM564 349C559.582 349 556 352.582 556 357V611C556 615.418 559.582 619 564 619V611V357V349ZM595 615V353V615Z" fill="#555555" mask="url(#path-125-inside-21_24_2)"/>
<g clip-path="url(#clip31_24_2)">
<rect width="12" height="12" rx="6" transform="matrix(1 0 0 -1 572 377)" fill="#343434"/>
<rect width="2" height="12" transform="matrix(1 0 0 -1 577 377)" fill="#555555"/>
<rect width="12" height="2" transform="matrix(1 0 0 -1 572 372)" fill="#555555"/>
</g>
<rect x="0.5" y="-0.5" width="11" height="11" rx="5.5" transform="matrix(1 0 0 -1 572 376)" stroke="#343434"/>
<g clip-path="url(#clip32_24_2)">
<rect x="572" y="377" width="12" height="12" rx="6" transform="rotate(-90 572 377)" fill="#555555"/>
<rect x="572" y="372" width="2" height="12" transform="rotate(-90 572 372)" fill="#343434"/>
<rect x="577" y="377" width="12" height="2" transform="rotate(-90 577 377)" fill="#343434"/>
</g>
<rect x="572.5" y="376.5" width="11" height="11" rx="5.5" transform="rotate(-90 572.5 376.5)" stroke="#555555"/>
<g clip-path="url(#clip33_24_2)">
<rect width="12" height="12" rx="6" transform="matrix(1 0 0 -1 572 603)" fill="#343434"/>
<rect width="2" height="12" transform="matrix(1 0 0 -1 577 603)" fill="#555555"/>
<rect width="12" height="2" transform="matrix(1 0 0 -1 572 598)" fill="#555555"/>
</g>
<rect x="0.5" y="-0.5" width="11" height="11" rx="5.5" transform="matrix(1 0 0 -1 572 602)" stroke="#343434"/>
<g clip-path="url(#clip34_24_2)">
<rect x="572" y="603" width="12" height="12" rx="6" transform="rotate(-90 572 603)" fill="#555555"/>
<rect x="572" y="598" width="2" height="12" transform="rotate(-90 572 598)" fill="#343434"/>
<rect x="577" y="603" width="12" height="2" transform="rotate(-90 577 603)" fill="#343434"/>
</g>
<rect x="572.5" y="602.5" width="11" height="11" rx="5.5" transform="rotate(-90 572.5 602.5)" stroke="#555555"/>
<mask id="path-143-inside-22_24_2" fill="white">
<path d="M831 615H862C864.209 615 866 613.209 866 611V387H831V615Z"/>
</mask>
<path d="M831 615H862C864.209 615 866 613.209 866 611V387H831V615Z" fill="#343434"/>
<path d="M831 615H866H831ZM870 383H831V391H862L870 383ZM831 387V615V387ZM862 615C866.418 615 870 611.418 870 607V383L862 391V611C862 613.209 862 615 862 615Z" fill="#555555" mask="url(#path-143-inside-22_24_2)"/>
<g clip-path="url(#clip35_24_2)">
<rect width="12" height="12" rx="6" transform="matrix(1 0 0 -1 842 603)" fill="#343434"/>
<rect width="2" height="12" transform="matrix(1 0 0 -1 847 603)" fill="#555555"/>
<rect width="12" height="2" transform="matrix(1 0 0 -1 842 598)" fill="#555555"/>
</g>
<rect x="0.5" y="-0.5" width="11" height="11" rx="5.5" transform="matrix(1 0 0 -1 842 602)" stroke="#343434"/>
<g clip-path="url(#clip36_24_2)">
<rect x="842" y="603" width="12" height="12" rx="6" transform="rotate(-90 842 603)" fill="#555555"/>
<rect x="842" y="598" width="2" height="12" transform="rotate(-90 842 598)" fill="#343434"/>
<rect x="847" y="603" width="12" height="2" transform="rotate(-90 847 603)" fill="#343434"/>
</g>
<rect x="842.5" y="602.5" width="11" height="11" rx="5.5" transform="rotate(-90 842.5 602.5)" stroke="#555555"/>
<mask id="path-153-inside-23_24_2" fill="white">
<path d="M798 387.06L831.941 421.001L865.882 387.06L831.941 353.119L798 387.06Z"/>
</mask>
<path d="M798 387.06L831.941 421.001L865.882 387.06L831.941 353.119L798 387.06Z" fill="#343434"/>
<path d="M799.414 385.646L833.355 419.587L830.527 422.415L796.586 388.474L799.414 385.646ZM861.852 391.091L827.911 357.149L835.972 349.088L869.913 383.03L861.852 391.091Z" fill="#555555" mask="url(#path-153-inside-23_24_2)"/>
<g clip-path="url(#clip37_24_2)">
<rect width="12" height="12" rx="6" transform="matrix(1 0 0 -1 829.88 389.121)" fill="#555555"/>
<rect width="2" height="12" transform="matrix(1 0 0 -1 834.88 389.121)" fill="#555555"/>
<rect width="12" height="2" transform="matrix(1 0 0 -1 829.88 384.121)" fill="#555555"/>
</g>
<rect x="0.5" y="-0.5" width="11" height="11" rx="5.5" transform="matrix(1 0 0 -1 829.88 388.121)" stroke="#555555"/>
<g clip-path="url(#clip38_24_2)">
<rect x="830" y="389" width="12" height="12" rx="6" transform="rotate(-90 830 389)" fill="#555555"/>
<rect x="830" y="384" width="2" height="12" transform="rotate(-90 830 384)" fill="#343434"/>
<rect x="835" y="389" width="12" height="2" transform="rotate(-90 835 389)" fill="#343434"/>
</g>
<rect x="830.5" y="388.5" width="11" height="11" rx="5.5" transform="rotate(-90 830.5 388.5)" stroke="#555555"/>
<rect width="2" height="196" transform="matrix(1 0 0 -1 593 582)" fill="#555555"/>
<rect width="2" height="162" transform="matrix(1 0 0 -1 831 582)" fill="#555555"/>
<rect width="240" height="2" transform="matrix(1 0 0 -1 593 582)" fill="#555555"/>
<rect width="206" height="2" transform="matrix(1 0 0 -1 593 388)" fill="#555555"/>
<g clip-path="url(#clip39_24_2)">
<mask id="path-163-inside-24_24_2" fill="white">
<path d="M1559 615H950V353L1559 353V615Z"/>
</mask>
<path d="M1559 615H950V353L1559 353V615Z" fill="#343434"/>
<rect width="609" height="194" transform="matrix(-1 0 0 -1 1559 581)" fill="#242124"/>
</g>
<path d="M1559 611H950V619H1559V611ZM950 357L1559 357V349L950 349V357Z" fill="#555555" mask="url(#path-163-inside-24_24_2)"/>
<mask id="path-165-inside-25_24_2" fill="white">
<path d="M1593 611C1593 613.209 1591.21 615 1589 615H1558V353H1589C1591.21 353 1593 354.791 1593 357V611Z"/>
</mask>
<path d="M1593 611C1593 613.209 1591.21 615 1589 615H1558V353H1589C1591.21 353 1593 354.791 1593 357V611Z" fill="#343434"/>
<path d="M1597 611C1597 615.418 1593.42 619 1589 619H1558V611H1589H1597ZM1558 349H1589C1593.42 349 1597 352.582 1597 357H1589H1558V349ZM1589 349C1593.42 349 1597 352.582 1597 357V611C1597 615.418 1593.42 619 1589 619V611V357V349ZM1558 615V353V615Z" fill="#555555" mask="url(#path-165-inside-25_24_2)"/>
<g clip-path="url(#clip40_24_2)">
<rect x="1581" y="377" width="12" height="12" rx="6" transform="rotate(180 1581 377)" fill="#343434"/>
<rect x="1576" y="377" width="2" height="12" transform="rotate(180 1576 377)" fill="#555555"/>
<rect x="1581" y="372" width="12" height="2" transform="rotate(180 1581 372)" fill="#555555"/>
</g>
<rect x="1580.5" y="376.5" width="11" height="11" rx="5.5" transform="rotate(180 1580.5 376.5)" stroke="#343434"/>
<g clip-path="url(#clip41_24_2)">
<rect x="1569" y="377" width="12" height="12" rx="6" transform="rotate(-90 1569 377)" fill="#555555"/>
<rect x="1569" y="372" width="2" height="12" transform="rotate(-90 1569 372)" fill="#343434"/>
<rect x="1574" y="377" width="12" height="2" transform="rotate(-90 1574 377)" fill="#343434"/>
</g>
<rect x="1569.5" y="376.5" width="11" height="11" rx="5.5" transform="rotate(-90 1569.5 376.5)" stroke="#555555"/>
<g clip-path="url(#clip42_24_2)">
<rect x="1581" y="603" width="12" height="12" rx="6" transform="rotate(180 1581 603)" fill="#343434"/>
<rect x="1576" y="603" width="2" height="12" transform="rotate(180 1576 603)" fill="#555555"/>
<rect x="1581" y="598" width="12" height="2" transform="rotate(180 1581 598)" fill="#555555"/>
</g>
<rect x="1580.5" y="602.5" width="11" height="11" rx="5.5" transform="rotate(180 1580.5 602.5)" stroke="#343434"/>
<g clip-path="url(#clip43_24_2)">
<rect x="1569" y="603" width="12" height="12" rx="6" transform="rotate(-90 1569 603)" fill="#555555"/>
<rect x="1569" y="598" width="2" height="12" transform="rotate(-90 1569 598)" fill="#343434"/>
<rect x="1574" y="603" width="12" height="2" transform="rotate(-90 1574 603)" fill="#343434"/>
</g>
<rect x="1569.5" y="602.5" width="11" height="11" rx="5.5" transform="rotate(-90 1569.5 602.5)" stroke="#555555"/>
<mask id="path-183-inside-26_24_2" fill="white">
<path d="M951 615H920C917.791 615 916 613.209 916 611V387H951V615Z"/>
</mask>
<path d="M951 615H920C917.791 615 916 613.209 916 611V387H951V615Z" fill="#343434"/>
<path d="M951 619H920C915.582 619 912 615.418 912 611H920H951V619ZM916 387H951H916ZM951 387V615V387ZM920 619C915.582 619 912 615.418 912 611V387H920V611V619Z" fill="#555555" mask="url(#path-183-inside-26_24_2)"/>
<g clip-path="url(#clip44_24_2)">
<rect x="940" y="603" width="12" height="12" rx="6" transform="rotate(180 940 603)" fill="#343434"/>
<rect x="935" y="603" width="2" height="12" transform="rotate(180 935 603)" fill="#555555"/>
<rect x="940" y="598" width="12" height="2" transform="rotate(180 940 598)" fill="#555555"/>
</g>
<rect x="939.5" y="602.5" width="11" height="11" rx="5.5" transform="rotate(180 939.5 602.5)" stroke="#343434"/>
<g clip-path="url(#clip45_24_2)">
<rect x="928" y="603" width="12" height="12" rx="6" transform="rotate(-90 928 603)" fill="#555555"/>
<rect x="928" y="598" width="2" height="12" transform="rotate(-90 928 598)" fill="#343434"/>
<rect x="933" y="603" width="12" height="2" transform="rotate(-90 933 603)" fill="#343434"/>
</g>
<rect x="928.5" y="602.5" width="11" height="11" rx="5.5" transform="rotate(-90 928.5 602.5)" stroke="#555555"/>
<mask id="path-193-inside-27_24_2" fill="white">
<path d="M984 387.06L950.059 421.001L916.118 387.06L950.059 353.119L984 387.06Z"/>
</mask>
<path d="M984 387.06L950.059 421.001L916.118 387.06L950.059 353.119L984 387.06Z" fill="#343434"/>
<path d="M982.586 385.646L948.645 419.587L951.473 422.415L985.414 388.474L982.586 385.646ZM920.148 391.091L954.089 357.149L946.028 349.088L912.087 383.03L920.148 391.091Z" fill="#555555" mask="url(#path-193-inside-27_24_2)"/>
<g clip-path="url(#clip46_24_2)">
<rect x="952.12" y="389.121" width="12" height="12" rx="6" transform="rotate(180 952.12 389.121)" fill="#343434"/>
<rect x="947.12" y="389.121" width="2" height="12" transform="rotate(180 947.12 389.121)" fill="#555555"/>
<rect x="952.12" y="384.121" width="12" height="2" transform="rotate(180 952.12 384.121)" fill="#555555"/>
</g>
<rect x="951.62" y="388.621" width="11" height="11" rx="5.5" transform="rotate(180 951.62 388.621)" stroke="#343434"/>
<g clip-path="url(#clip47_24_2)">
<rect x="940" y="389" width="12" height="12" rx="6" transform="rotate(-90 940 389)" fill="#555555"/>
<rect x="940" y="384" width="2" height="12" transform="rotate(-90 940 384)" fill="#343434"/>
<rect x="945" y="389" width="12" height="2" transform="rotate(-90 945 389)" fill="#343434"/>
</g>
<rect x="940.5" y="388.5" width="11" height="11" rx="5.5" transform="rotate(-90 940.5 388.5)" stroke="#555555"/>
<rect width="2" height="196" transform="matrix(-1 0 0 -1 1560 582)" fill="#555555"/>
<rect width="2" height="162" transform="matrix(-1 0 0 -1 951 582)" fill="#555555"/>
<rect width="611" height="2" transform="matrix(-1 0 0 -1 1560 582)" fill="#555555"/>
<rect width="577" height="2" transform="matrix(-1 0 0 -1 1560 388)" fill="#555555"/>
<g clip-path="url(#clip48_24_2)">
<mask id="path-203-inside-28_24_2" fill="white">
<path d="M1559 113L950 113V341H1559V113Z"/>
</mask>
<path d="M1559 113L950 113V341H1559V113Z" fill="#343434"/>
<g clip-path="url(#clip49_24_2)">
<rect width="12" height="12" rx="6" transform="matrix(0 1 1 0 1257 125)" fill="#555555"/>
<rect width="2" height="12" transform="matrix(0 1 1 0 1257 130)" fill="#343434"/>
<rect width="12" height="2" transform="matrix(0 1 1 0 1262 125)" fill="#343434"/>
</g>
<rect x="0.5" y="0.5" width="11" height="11" rx="5.5" transform="matrix(0 1 1 0 1257 125)" stroke="#555555"/>
</g>
<path d="M1559 117L950 117V109L1559 109V117ZM950 337H1559V345H950V337Z" fill="#555555" mask="url(#path-203-inside-28_24_2)"/>
<g clip-path="url(#clip50_24_2)">
<mask id="path-209-inside-29_24_2" fill="white">
<path d="M1593 117C1593 114.791 1591.21 113 1589 113H1558V341H1589C1591.21 341 1593 339.209 1593 337V117Z"/>
</mask>
<path d="M1593 117C1593 114.791 1591.21 113 1589 113H1558V341H1589C1591.21 341 1593 339.209 1593 337V117Z" fill="#343434"/>
<g clip-path="url(#clip51_24_2)">
<rect width="12" height="12" rx="6" transform="matrix(-1 0 0 1 1581 125)" fill="#343434"/>
<rect width="2" height="12" transform="matrix(-1 0 0 1 1576 125)" fill="#555555"/>
<rect width="12" height="2" transform="matrix(-1 0 0 1 1581 130)" fill="#555555"/>
</g>
<rect x="-0.5" y="0.5" width="11" height="11" rx="5.5" transform="matrix(-1 0 0 1 1580 125)" stroke="#343434"/>
<g clip-path="url(#clip52_24_2)">
<rect width="12" height="12" rx="6" transform="matrix(0 1 1 0 1569 125)" fill="#555555"/>
<rect width="2" height="12" transform="matrix(0 1 1 0 1569 130)" fill="#343434"/>
<rect width="12" height="2" transform="matrix(0 1 1 0 1574 125)" fill="#343434"/>
</g>
<rect x="0.5" y="0.5" width="11" height="11" rx="5.5" transform="matrix(0 1 1 0 1569 125)" stroke="#555555"/>
<g clip-path="url(#clip53_24_2)">
<rect width="12" height="12" rx="6" transform="matrix(0 1 1 0 1569 317)" fill="#555555"/>
<rect width="2" height="12" transform="matrix(0 1 1 0 1569 322)" fill="#343434"/>
<rect width="12" height="2" transform="matrix(0 1 1 0 1574 317)" fill="#343434"/>
</g>
<rect x="0.5" y="0.5" width="11" height="11" rx="5.5" transform="matrix(0 1 1 0 1569 317)" stroke="#555555"/>
</g>
<path d="M1597 117C1597 112.582 1593.42 109 1589 109H1558V117H1589H1597ZM1558 345H1589C1593.42 345 1597 341.418 1597 337H1589H1558V345ZM1589 345C1593.42 345 1597 341.418 1597 337V117C1597 112.582 1593.42 109 1589 109V117V337V345ZM1558 113V341V113Z" fill="#555555" mask="url(#path-209-inside-29_24_2)"/>
<mask id="path-223-inside-30_24_2" fill="white">
<path d="M951 113H920C917.791 113 916 114.791 916 117V307H951V113Z"/>
</mask>
<path d="M951 113H920C917.791 113 916 114.791 916 117V307H951V113Z" fill="#343434"/>
<path d="M951 109H920C915.582 109 912 112.582 912 117H920H951V109ZM916 307H951H916ZM951 307V113V307ZM920 109C915.582 109 912 112.582 912 117V307H920V117V109Z" fill="#555555" mask="url(#path-223-inside-30_24_2)"/>
<g clip-path="url(#clip54_24_2)">
<rect width="12" height="12" rx="6" transform="matrix(-1 0 0 1 940 125)" fill="#343434"/>
<rect width="2" height="12" transform="matrix(-1 0 0 1 935 125)" fill="#555555"/>
<rect width="12" height="2" transform="matrix(-1 0 0 1 940 130)" fill="#555555"/>
</g>
<rect x="-0.5" y="0.5" width="11" height="11" rx="5.5" transform="matrix(-1 0 0 1 939 125)" stroke="#343434"/>
<g clip-path="url(#clip55_24_2)">
<rect width="12" height="12" rx="6" transform="matrix(0 1 1 0 928 125)" fill="#555555"/>
<rect width="2" height="12" transform="matrix(0 1 1 0 928 130)" fill="#343434"/>
<rect width="12" height="2" transform="matrix(0 1 1 0 933 125)" fill="#343434"/>
</g>
<rect x="0.5" y="0.5" width="11" height="11" rx="5.5" transform="matrix(0 1 1 0 928 125)" stroke="#555555"/>
<mask id="path-233-inside-31_24_2" fill="white">
<path d="M984 306.94L950.059 272.999L916.118 306.94L950.059 340.881L984 306.94Z"/>
</mask>
<path d="M984 306.94L950.059 272.999L916.118 306.94L950.059 340.881L984 306.94Z" fill="#343434"/>
<path d="M982.586 308.354L948.645 274.413L951.473 271.585L985.414 305.526L982.586 308.354ZM920.148 302.909L954.089 336.851L946.028 344.912L912.087 310.97L920.148 302.909Z" fill="#555555" mask="url(#path-233-inside-31_24_2)"/>
<g clip-path="url(#clip56_24_2)">
<rect width="12" height="12" rx="6" transform="matrix(-1 0 0 1 952.12 304.879)" fill="#343434"/>
<rect width="2" height="12" transform="matrix(-1 0 0 1 947.12 304.879)" fill="#555555"/>
<rect width="12" height="2" transform="matrix(-1 0 0 1 952.12 309.879)" fill="#555555"/>
</g>
<rect x="-0.5" y="0.5" width="11" height="11" rx="5.5" transform="matrix(-1 0 0 1 951.12 304.879)" stroke="#343434"/>
<g clip-path="url(#clip57_24_2)">
<rect width="12" height="12" rx="6" transform="matrix(0 1 1 0 940 305)" fill="#555555"/>
<rect width="2" height="12" transform="matrix(0 1 1 0 940 310)" fill="#343434"/>
<rect width="12" height="2" transform="matrix(0 1 1 0 945 305)" fill="#343434"/>
</g>
<rect x="0.5" y="0.5" width="11" height="11" rx="5.5" transform="matrix(0 1 1 0 940 305)" stroke="#555555"/>
<rect width="2" height="162" transform="matrix(-1 0 0 1 1560 146)" fill="#555555"/>
<rect width="2" height="128" transform="matrix(-1 0 0 1 951 146)" fill="#555555"/>
<rect width="611" height="2" transform="matrix(-1 0 0 1 1560 146)" fill="#555555"/>
<rect width="577" height="2" transform="matrix(-1 0 0 1 1560 306)" fill="#555555"/>
<g clip-path="url(#clip58_24_2)">
<g clip-path="url(#clip59_24_2)">
<rect width="71.88" height="71.88" rx="4" transform="matrix(0.707107 -0.707107 -0.707107 -0.707107 890.912 397.739)" fill="#343434"/>
<g clip-path="url(#clip60_24_2)">
<rect x="852.3" y="340.912" width="12" height="12" rx="6" fill="#555555"/>
<rect x="857.3" y="340.912" width="2" height="12" fill="#343434"/>
<rect x="852.3" y="345.912" width="12" height="2" fill="#343434"/>
</g>
<rect x="852.8" y="341.412" width="11" height="11" rx="5.5" stroke="#555555"/>
<g clip-path="url(#clip61_24_2)">
<rect x="884.912" y="308.3" width="12" height="12" rx="6" fill="#555555"/>
<rect x="889.912" y="308.3" width="2" height="12" fill="#343434"/>
<rect x="884.912" y="313.3" width="12" height="2" fill="#343434"/>
</g>
<rect x="885.412" y="308.8" width="11" height="11" rx="5.5" stroke="#555555"/>
<g clip-path="url(#clip62_24_2)">
<rect x="917.523" y="340.912" width="12" height="12" rx="6" fill="#555555"/>
<rect x="922.523" y="340.912" width="2" height="12" fill="#343434"/>
<rect x="917.523" y="345.912" width="12" height="2" fill="#343434"/>
</g>
<rect x="918.023" y="341.412" width="11" height="11" rx="5.5" stroke="#555555"/>
<g clip-path="url(#clip63_24_2)">
<rect x="884.912" y="373.524" width="12" height="12" rx="6" fill="#555555"/>
<rect x="889.912" y="373.524" width="2" height="12" fill="#343434"/>
<rect x="884.912" y="378.524" width="12" height="2" fill="#343434"/>
</g>
<rect x="885.412" y="374.024" width="11" height="11" rx="5.5" stroke="#555555"/>
</g>
<rect y="-2.82843" width="67.88" height="67.88" rx="2" transform="matrix(0.707107 -0.707107 -0.707107 -0.707107 888.912 392.91)" stroke="#555555" stroke-width="4"/>
</g>
<g clip-path="url(#clip64_24_2)">
<path d="M1273 70L1411 70V69C1411 30.8924 1380.11 -3.45707e-06 1342 -3.45707e-06V-3.45707e-06C1303.89 -3.45707e-06 1273 30.8924 1273 69V70Z" fill="#555555"/>
<rect x="2" y="-2" width="126" height="126" rx="63" transform="matrix(1 0 0 -1 1277 130)" fill="#343434"/>
<rect x="2" y="-2" width="126" height="126" rx="63" transform="matrix(1 0 0 -1 1277 130)" stroke="#555555" stroke-width="4"/>
</g>
<g clip-path="url(#clip65_24_2)">
<path d="M1427 70L1565 70V69C1565 30.8924 1534.11 -3.45707e-06 1496 -3.45707e-06V-3.45707e-06C1457.89 -3.45707e-06 1427 30.8924 1427 69V70Z" fill="#555555"/>
<rect x="2" y="-2" width="126" height="126" rx="63" transform="matrix(1 0 0 -1 1431 130)" fill="#343434"/>
<rect x="2" y="-2" width="126" height="126" rx="63" transform="matrix(1 0 0 -1 1431 130)" stroke="#555555" stroke-width="4"/>
</g>
</g>
<defs>
<clipPath id="clip0_24_2">
<rect width="1923" height="627" fill="white"/>
</clipPath>
<clipPath id="clip1_24_2">
<rect width="1923" height="560" fill="white" transform="translate(0 67)"/>
</clipPath>
<clipPath id="clip2_24_2">
<path d="M974 67L1248 67V103L974 103V67Z" fill="white"/>
</clipPath>
<clipPath id="clip3_24_2">
<path d="M1639 79L1877 79V615H1639V79Z" fill="white"/>
</clipPath>
<clipPath id="clip4_24_2">
<rect x="1617" y="591" width="12" height="12" rx="6" fill="white"/>
</clipPath>
<clipPath id="clip5_24_2">
<rect x="1617" y="603" width="12" height="12" rx="6" transform="rotate(-90 1617 603)" fill="white"/>
</clipPath>
<clipPath id="clip6_24_2">
<rect x="1887" y="91" width="12" height="12" rx="6" fill="white"/>
</clipPath>
<clipPath id="clip7_24_2">
<rect x="1887" y="103" width="12" height="12" rx="6" transform="rotate(-90 1887 103)" fill="white"/>
</clipPath>
<clipPath id="clip8_24_2">
<rect x="1629" y="103" width="12" height="12" rx="6" fill="white"/>
</clipPath>
<clipPath id="clip9_24_2">
<rect x="1629" y="115" width="12" height="12" rx="6" transform="rotate(-90 1629 115)" fill="white"/>
</clipPath>
<clipPath id="clip10_24_2">
<rect x="1874.88" y="578.88" width="12" height="12" rx="6" fill="white"/>
</clipPath>
<clipPath id="clip11_24_2">
<rect x="1875" y="591" width="12" height="12" rx="6" transform="rotate(-90 1875 591)" fill="white"/>
</clipPath>
<clipPath id="clip12_24_2">
<path d="M12 581L12 113H548V581H12Z" fill="white"/>
</clipPath>
<clipPath id="clip13_24_2">
<rect x="24" y="353" width="12" height="12" rx="6" transform="rotate(-90 24 353)" fill="white"/>
</clipPath>
<clipPath id="clip14_24_2">
<rect x="524" y="353" width="12" height="12" rx="6" transform="rotate(-90 524 353)" fill="white"/>
</clipPath>
<clipPath id="clip15_24_2">
<path d="M46 615V580H548V611C548 613.209 546.209 615 544 615H46Z" fill="white"/>
</clipPath>
<clipPath id="clip16_24_2">
<rect x="524" y="603" width="12" height="12" rx="6" transform="rotate(-90 524 603)" fill="white"/>
</clipPath>
<clipPath id="clip17_24_2">
<path d="M12 114V83C12 80.7909 13.7909 79 16 79H544C546.209 79 548 80.7909 548 83V114H12Z" fill="white"/>
</clipPath>
<clipPath id="clip18_24_2">
<rect x="24" y="103" width="12" height="12" rx="6" transform="rotate(-90 24 103)" fill="white"/>
</clipPath>
<clipPath id="clip19_24_2">
<rect x="524" y="103" width="12" height="12" rx="6" transform="rotate(-90 524 103)" fill="white"/>
</clipPath>
<clipPath id="clip20_24_2">
<rect x="36" y="591" width="12" height="12" rx="6" transform="rotate(-90 36 591)" fill="white"/>
</clipPath>
<clipPath id="clip21_24_2">
<path d="M594 79L832 79V341H594V79Z" fill="white"/>
</clipPath>
<clipPath id="clip22_24_2">
<rect x="572" y="317" width="12" height="12" rx="6" fill="white"/>
</clipPath>
<clipPath id="clip23_24_2">
<rect x="572" y="329" width="12" height="12" rx="6" transform="rotate(-90 572 329)" fill="white"/>
</clipPath>
<clipPath id="clip24_24_2">
<rect x="572" y="91.0001" width="12" height="12" rx="6" fill="white"/>
</clipPath>
<clipPath id="clip25_24_2">
<rect x="572" y="103" width="12" height="12" rx="6" transform="rotate(-90 572 103)" fill="white"/>
</clipPath>
<clipPath id="clip26_24_2">
<rect x="842" y="91" width="12" height="12" rx="6" fill="white"/>
</clipPath>
<clipPath id="clip27_24_2">
<rect x="842" y="103" width="12" height="12" rx="6" transform="rotate(-90 842 103)" fill="white"/>
</clipPath>
<clipPath id="clip28_24_2">
<rect x="829.88" y="304.879" width="12" height="12" rx="6" fill="white"/>
</clipPath>
<clipPath id="clip29_24_2">
<rect x="830" y="317" width="12" height="12" rx="6" transform="rotate(-90 830 317)" fill="white"/>
</clipPath>
<clipPath id="clip30_24_2">
<path d="M594 615H832V353H594V615Z" fill="white"/>
</clipPath>
<clipPath id="clip31_24_2">
<rect width="12" height="12" rx="6" transform="matrix(1 0 0 -1 572 377)" fill="white"/>
</clipPath>
<clipPath id="clip32_24_2">
<rect x="572" y="377" width="12" height="12" rx="6" transform="rotate(-90 572 377)" fill="white"/>
</clipPath>
<clipPath id="clip33_24_2">
<rect width="12" height="12" rx="6" transform="matrix(1 0 0 -1 572 603)" fill="white"/>
</clipPath>
<clipPath id="clip34_24_2">
<rect x="572" y="603" width="12" height="12" rx="6" transform="rotate(-90 572 603)" fill="white"/>
</clipPath>
<clipPath id="clip35_24_2">
<rect width="12" height="12" rx="6" transform="matrix(1 0 0 -1 842 603)" fill="white"/>
</clipPath>
<clipPath id="clip36_24_2">
<rect x="842" y="603" width="12" height="12" rx="6" transform="rotate(-90 842 603)" fill="white"/>
</clipPath>
<clipPath id="clip37_24_2">
<rect width="12" height="12" rx="6" transform="matrix(1 0 0 -1 829.88 389.121)" fill="white"/>
</clipPath>
<clipPath id="clip38_24_2">
<rect x="830" y="389" width="12" height="12" rx="6" transform="rotate(-90 830 389)" fill="white"/>
</clipPath>
<clipPath id="clip39_24_2">
<path d="M1559 615H950V353L1559 353V615Z" fill="white"/>
</clipPath>
<clipPath id="clip40_24_2">
<rect x="1581" y="377" width="12" height="12" rx="6" transform="rotate(180 1581 377)" fill="white"/>
</clipPath>
<clipPath id="clip41_24_2">
<rect x="1569" y="377" width="12" height="12" rx="6" transform="rotate(-90 1569 377)" fill="white"/>
</clipPath>
<clipPath id="clip42_24_2">
<rect x="1581" y="603" width="12" height="12" rx="6" transform="rotate(180 1581 603)" fill="white"/>
</clipPath>
<clipPath id="clip43_24_2">
<rect x="1569" y="603" width="12" height="12" rx="6" transform="rotate(-90 1569 603)" fill="white"/>
</clipPath>
<clipPath id="clip44_24_2">
<rect x="940" y="603" width="12" height="12" rx="6" transform="rotate(180 940 603)" fill="white"/>
</clipPath>
<clipPath id="clip45_24_2">
<rect x="928" y="603" width="12" height="12" rx="6" transform="rotate(-90 928 603)" fill="white"/>
</clipPath>
<clipPath id="clip46_24_2">
<rect x="952.12" y="389.121" width="12" height="12" rx="6" transform="rotate(180 952.12 389.121)" fill="white"/>
</clipPath>
<clipPath id="clip47_24_2">
<rect x="940" y="389" width="12" height="12" rx="6" transform="rotate(-90 940 389)" fill="white"/>
</clipPath>
<clipPath id="clip48_24_2">
<path d="M1559 113L950 113V341H1559V113Z" fill="white"/>
</clipPath>
<clipPath id="clip49_24_2">
<rect width="12" height="12" rx="6" transform="matrix(0 1 1 0 1257 125)" fill="white"/>
</clipPath>
<clipPath id="clip50_24_2">
<path d="M1593 117C1593 114.791 1591.21 113 1589 113H1558V341H1589C1591.21 341 1593 339.209 1593 337V117Z" fill="white"/>
</clipPath>
<clipPath id="clip51_24_2">
<rect width="12" height="12" rx="6" transform="matrix(-1 0 0 1 1581 125)" fill="white"/>
</clipPath>
<clipPath id="clip52_24_2">
<rect width="12" height="12" rx="6" transform="matrix(0 1 1 0 1569 125)" fill="white"/>
</clipPath>
<clipPath id="clip53_24_2">
<rect width="12" height="12" rx="6" transform="matrix(0 1 1 0 1569 317)" fill="white"/>
</clipPath>
<clipPath id="clip54_24_2">
<rect width="12" height="12" rx="6" transform="matrix(-1 0 0 1 940 125)" fill="white"/>
</clipPath>
<clipPath id="clip55_24_2">
<rect width="12" height="12" rx="6" transform="matrix(0 1 1 0 928 125)" fill="white"/>
</clipPath>
<clipPath id="clip56_24_2">
<rect width="12" height="12" rx="6" transform="matrix(-1 0 0 1 952.12 304.879)" fill="white"/>
</clipPath>
<clipPath id="clip57_24_2">
<rect width="12" height="12" rx="6" transform="matrix(0 1 1 0 940 305)" fill="white"/>
</clipPath>
<clipPath id="clip58_24_2">
<rect width="71.88" height="71.88" fill="white" transform="translate(840 346.827) rotate(-45)"/>
</clipPath>
<clipPath id="clip59_24_2">
<rect width="71.88" height="71.88" rx="4" transform="matrix(0.707107 -0.707107 -0.707107 -0.707107 890.912 397.739)" fill="white"/>
</clipPath>
<clipPath id="clip60_24_2">
<rect x="852.3" y="340.912" width="12" height="12" rx="6" fill="white"/>
</clipPath>
<clipPath id="clip61_24_2">
<rect x="884.912" y="308.3" width="12" height="12" rx="6" fill="white"/>
</clipPath>
<clipPath id="clip62_24_2">
<rect x="917.523" y="340.912" width="12" height="12" rx="6" fill="white"/>
</clipPath>
<clipPath id="clip63_24_2">
<rect x="884.912" y="373.524" width="12" height="12" rx="6" fill="white"/>
</clipPath>
<clipPath id="clip64_24_2">
<rect width="138" height="138" fill="white" transform="translate(1273)"/>
</clipPath>
<clipPath id="clip65_24_2">
<rect width="138" height="138" fill="white" transform="translate(1427)"/>
</clipPath>
</defs>
</svg>
