<svg width="1923" height="560" viewBox="0 0 1923 560" fill="none" xmlns="http://www.w3.org/2000/svg">
<g clip-path="url(#clip0_24_2)">
<g clip-path="url(#clip1_24_2)">
<g clip-path="url(#clip2_24_2)">
<mask id="path-1-inside-1_24_2" fill="white">
<path d="M974 0L1248 0V36L974 36V0Z"/>
</mask>
<rect width="263" height="36" transform="translate(975 6)" fill="#343434"/>
<rect width="6" height="33" transform="translate(986 3)" fill="#555555"/>
<rect width="6" height="33" transform="translate(998 3)" fill="#555555"/>
<rect width="6" height="33" transform="translate(1010 3)" fill="#555555"/>
<rect width="6" height="33" transform="translate(1022 3)" fill="#555555"/>
<rect width="6" height="33" transform="translate(1034 3)" fill="#555555"/>
<rect width="6" height="33" transform="translate(1046 3)" fill="#555555"/>
<rect width="6" height="33" transform="translate(1058 3)" fill="#555555"/>
<rect width="6" height="33" transform="translate(1070 3)" fill="#555555"/>
<rect width="6" height="33" transform="translate(1082 3)" fill="#555555"/>
<rect width="6" height="33" transform="translate(1094 3)" fill="#555555"/>
<rect width="6" height="33" transform="translate(1106 3)" fill="#555555"/>
<rect width="6" height="33" transform="translate(1118 3)" fill="#555555"/>
<rect width="6" height="33" transform="translate(1130 3)" fill="#555555"/>
<rect width="6" height="33" transform="translate(1142 3)" fill="#555555"/>
<rect width="6" height="33" transform="translate(1154 3)" fill="#555555"/>
<rect width="6" height="33" transform="translate(1166 3)" fill="#555555"/>
<rect width="6" height="33" transform="translate(1178 3)" fill="#555555"/>
<rect width="6" height="33" transform="translate(1190 3)" fill="#555555"/>
<rect width="6" height="33" transform="translate(1202 3)" fill="#555555"/>
<rect width="6" height="33" transform="translate(1214 3)" fill="#555555"/>
<rect width="6" height="33" transform="translate(1226 3)" fill="#555555"/>
<rect width="6" height="33" transform="translate(1238 3)" fill="#555555"/>
</g>
<path d="M974 36H968V44H974V36ZM1248 28L974 28V44L1248 44V28ZM980 36V0L968 0V36H980Z" fill="#555555" mask="url(#path-1-inside-1_24_2)"/>
<mask id="path-3-inside-2_24_2" fill="white">
<path d="M0 0H976V560H0V0Z"/>
</mask>
<path d="M0 0H976V560H0V0Z" fill="#343434"/>
<path d="M0 0V-4H-4V0H0ZM0 560H-4V564H0V560ZM0 4H976V-4H0V4ZM976 556H0V564H976V556ZM4 560V0H-4V560H4Z" fill="#555555" mask="url(#path-3-inside-2_24_2)"/>
<mask id="path-5-inside-3_24_2" fill="white">
<path d="M1201.97 42.5265L1245.99 -1.49033L1275.69 28.2082L1231.67 72.225L1201.97 42.5265Z"/>
</mask>
<path d="M1201.97 42.5265L1245.99 -1.49033L1275.69 28.2082L1231.67 72.225L1201.97 42.5265Z" fill="#343434"/>
<path d="M1204.23 44.7892L1248.25 0.772415L1243.73 -3.75307L1199.71 40.2637L1204.23 44.7892Z" fill="#555555" mask="url(#path-5-inside-3_24_2)"/>
<mask id="path-7-inside-4_24_2" fill="white">
<path d="M1245 0H1923V560H1245V0Z"/>
</mask>
<path d="M1245 0H1923V560H1245V0Z" fill="#343434"/>
<path d="M1923 0H1927V-4H1923V0ZM1923 560V564H1927V560H1923ZM1245 4H1923V-4H1245V4ZM1919 0V560H1927V0H1919ZM1923 556H1245V564H1923V556Z" fill="#555555" mask="url(#path-7-inside-4_24_2)"/>
<mask id="path-9-inside-5_24_2" fill="white">
<path d="M975 32H1474V560H975V32Z"/>
</mask>
<path d="M975 32H1474V560H975V32Z" fill="#343434"/>
<path d="M1474 556H975V564H1474V556Z" fill="#555555" mask="url(#path-9-inside-5_24_2)"/>
</g>
<mask id="path-11-inside-6_24_2" fill="white">
<path d="M889 556V4H893V556H889Z"/>
</mask>
<path d="M889 556V4H893V556H889Z" fill="#343434"/>
<path d="M893 556V4H885V556H893ZM889 4V556H897V4H889Z" fill="#555555" mask="url(#path-11-inside-6_24_2)"/>
<g clip-path="url(#clip3_24_2)">
<mask id="path-13-inside-7_24_2" fill="white">
<path d="M1639 12L1877 12V548H1639V12Z"/>
</mask>
<path d="M1639 12L1877 12V548H1639V12Z" fill="#343434"/>
<rect width="238" height="468" transform="translate(1639 46)" fill="#242124"/>
</g>
<path d="M1639 16L1877 16V8L1639 8V16ZM1877 544H1639V552H1877V544Z" fill="#555555" mask="url(#path-13-inside-7_24_2)"/>
<mask id="path-15-inside-8_24_2" fill="white">
<path d="M1605 46H1640V548H1609C1606.79 548 1605 546.209 1605 544V46Z"/>
</mask>
<path d="M1605 46H1640V548H1609C1606.79 548 1605 546.209 1605 544V46Z" fill="#343434"/>
<path d="M1605 46H1640H1605ZM1640 552H1609C1604.58 552 1601 548.418 1601 544H1609H1640V552ZM1609 552C1604.58 552 1601 548.418 1601 544V46H1609V544V552ZM1640 46V548V46Z" fill="#555555" mask="url(#path-15-inside-8_24_2)"/>
<g clip-path="url(#clip4_24_2)">
<rect x="1617" y="524" width="12" height="12" rx="6" fill="#343434"/>
<rect x="1622" y="524" width="2" height="12" fill="#555555"/>
<rect x="1617" y="529" width="12" height="2" fill="#555555"/>
</g>
<rect x="1617.5" y="524.5" width="11" height="11" rx="5.5" stroke="#343434"/>
<g clip-path="url(#clip5_24_2)">
<rect x="1617" y="536" width="12" height="12" rx="6" transform="rotate(-90 1617 536)" fill="#555555"/>
<rect x="1617" y="531" width="2" height="12" transform="rotate(-90 1617 531)" fill="#343434"/>
<rect x="1622" y="536" width="12" height="2" transform="rotate(-90 1622 536)" fill="#343434"/>
</g>
<rect x="1617.5" y="535.5" width="11" height="11" rx="5.5" transform="rotate(-90 1617.5 535.5)" stroke="#555555"/>
<mask id="path-25-inside-9_24_2" fill="white">
<path d="M1876 12L1907 12C1909.21 12 1911 13.7909 1911 16V514H1876V12Z"/>
</mask>
<path d="M1876 12L1907 12C1909.21 12 1911 13.7909 1911 16V514H1876V12Z" fill="#343434"/>
<path d="M1876 8L1907 8C1911.42 8 1915 11.5817 1915 16H1907L1876 16V8ZM1911 514H1876H1911ZM1876 514V12V514ZM1907 8C1911.42 8 1915 11.5817 1915 16V514H1907V16V8Z" fill="#555555" mask="url(#path-25-inside-9_24_2)"/>
<g clip-path="url(#clip6_24_2)">
<rect x="1887" y="24" width="12" height="12" rx="6" fill="#343434"/>
<rect x="1892" y="24" width="2" height="12" fill="#555555"/>
<rect x="1887" y="29" width="12" height="2" fill="#555555"/>
</g>
<rect x="1887.5" y="24.5" width="11" height="11" rx="5.5" stroke="#343434"/>
<g clip-path="url(#clip7_24_2)">
<rect x="1887" y="36" width="12" height="12" rx="6" transform="rotate(-90 1887 36)" fill="#555555"/>
<rect x="1887" y="31" width="2" height="12" transform="rotate(-90 1887 31)" fill="#343434"/>
<rect x="1892" y="36" width="12" height="2" transform="rotate(-90 1892 36)" fill="#343434"/>
</g>
<rect x="1887.5" y="35.5" width="11" height="11" rx="5.5" transform="rotate(-90 1887.5 35.5)" stroke="#555555"/>
<mask id="path-35-inside-10_24_2" fill="white">
<path d="M1605 45.9412L1638.94 12L1672.88 45.9412L1638.94 79.8823L1605 45.9412Z"/>
</mask>
<path d="M1605 45.9412L1638.94 12L1672.88 45.9412L1638.94 79.8823L1605 45.9412Z" fill="#343434"/>
<path d="M1609.03 49.9717L1642.97 16.0305L1634.91 7.96953L1600.97 41.9107L1609.03 49.9717ZM1671.47 44.5269L1637.53 78.4681L1640.36 81.2965L1674.3 47.3554L1671.47 44.5269Z" fill="#555555" mask="url(#path-35-inside-10_24_2)"/>
<mask id="path-37-inside-11_24_2" fill="white">
<path d="M1843 513.941L1876.94 480L1910.88 513.941L1876.94 547.882L1843 513.941Z"/>
</mask>
<path d="M1843 513.941L1876.94 480L1910.88 513.941L1876.94 547.882L1843 513.941Z" fill="#343434"/>
<path d="M1844.41 515.355L1878.36 481.414L1875.53 478.586L1841.59 512.527L1844.41 515.355ZM1906.85 509.911L1872.91 543.852L1880.97 551.913L1914.91 517.972L1906.85 509.911Z" fill="#555555" mask="url(#path-37-inside-11_24_2)"/>
<rect width="2" height="437" transform="translate(1638 78)" fill="#555555"/>
<rect width="2" height="436" transform="translate(1876 45)" fill="#555555"/>
<rect width="207" height="2" transform="translate(1671 45)" fill="#555555"/>
<rect width="206" height="2" transform="translate(1638 513)" fill="#555555"/>
<g clip-path="url(#clip8_24_2)">
<mask id="path-39-inside-12_24_2" fill="white">
<path d="M12 514L12 46H548V514H12Z"/>
</mask>
<path d="M12 514L12 46H548V514H12Z" fill="#343434"/>
<rect width="467" height="468" transform="matrix(0 -1 1 0 46 514)" fill="#242124"/>
<g clip-path="url(#clip9_24_2)">
<rect x="24" y="286" width="12" height="12" rx="6" transform="rotate(-90 24 286)" fill="#555555"/>
<rect x="24" y="281" width="2" height="12" transform="rotate(-90 24 281)" fill="#343434"/>
<rect x="29" y="286" width="12" height="2" transform="rotate(-90 29 286)" fill="#343434"/>
</g>
<rect x="24.5" y="285.5" width="11" height="11" rx="5.5" transform="rotate(-90 24.5 285.5)" stroke="#555555"/>
<g clip-path="url(#clip10_24_2)">
<rect x="524" y="286" width="12" height="12" rx="6" transform="rotate(-90 524 286)" fill="#555555"/>
<rect x="524" y="281" width="2" height="12" transform="rotate(-90 524 281)" fill="#343434"/>
<rect x="529" y="286" width="12" height="2" transform="rotate(-90 529 286)" fill="#343434"/>
</g>
<rect x="524.5" y="285.5" width="11" height="11" rx="5.5" transform="rotate(-90 524.5 285.5)" stroke="#555555"/>
</g>
<path d="M16 514L16 46H8L8 514H16ZM544 46V514H552V46H544Z" fill="#555555" mask="url(#path-39-inside-12_24_2)"/>
<g clip-path="url(#clip11_24_2)">
<mask id="path-49-inside-13_24_2" fill="white">
<path d="M46 548V513H548V544C548 546.209 546.209 548 544 548H46Z"/>
</mask>
<path d="M46 548V513H548V544C548 546.209 546.209 548 544 548H46Z" fill="#343434"/>
<g clip-path="url(#clip12_24_2)">
<rect x="524" y="536" width="12" height="12" rx="6" transform="rotate(-90 524 536)" fill="#555555"/>
<rect x="524" y="531" width="2" height="12" transform="rotate(-90 524 531)" fill="#343434"/>
<rect x="529" y="536" width="12" height="2" transform="rotate(-90 529 536)" fill="#343434"/>
</g>
<rect x="524.5" y="535.5" width="11" height="11" rx="5.5" transform="rotate(-90 524.5 535.5)" stroke="#555555"/>
</g>
<path d="M46 548V513V548ZM552 513V544C552 548.418 548.418 552 544 552V544V513H552ZM552 544C552 548.418 548.418 552 544 552H46V544H544H552ZM46 513H548H46Z" fill="#555555" mask="url(#path-49-inside-13_24_2)"/>
<g clip-path="url(#clip13_24_2)">
<mask id="path-55-inside-14_24_2" fill="white">
<path d="M12 47V16C12 13.7909 13.7909 12 16 12H544C546.209 12 548 13.7909 548 16V47H12Z"/>
</mask>
<path d="M12 47V16C12 13.7909 13.7909 12 16 12H544C546.209 12 548 13.7909 548 16V47H12Z" fill="#343434"/>
<g clip-path="url(#clip14_24_2)">
<rect x="24" y="36" width="12" height="12" rx="6" transform="rotate(-90 24 36)" fill="#555555"/>
<rect x="24" y="31" width="2" height="12" transform="rotate(-90 24 31)" fill="#343434"/>
<rect x="29" y="36" width="12" height="2" transform="rotate(-90 29 36)" fill="#343434"/>
</g>
<rect x="24.5" y="35.5" width="11" height="11" rx="5.5" transform="rotate(-90 24.5 35.5)" stroke="#555555"/>
<g clip-path="url(#clip15_24_2)">
<rect x="524" y="36" width="12" height="12" rx="6" transform="rotate(-90 524 36)" fill="#555555"/>
<rect x="524" y="31" width="2" height="12" transform="rotate(-90 524 31)" fill="#343434"/>
<rect x="529" y="36" width="12" height="2" transform="rotate(-90 529 36)" fill="#343434"/>
</g>
<rect x="524.5" y="35.5" width="11" height="11" rx="5.5" transform="rotate(-90 524.5 35.5)" stroke="#555555"/>
</g>
<path d="M8 47V16C8 11.5817 11.5817 8 16 8V16V47H8ZM544 8C548.418 8 552 11.5817 552 16V47H544V16V8ZM548 47H12H548ZM8 16C8 11.5817 11.5817 8 16 8H544C548.418 8 552 11.5817 552 16H544L16 16H8Z" fill="#555555" mask="url(#path-55-inside-14_24_2)"/>
<mask id="path-65-inside-15_24_2" fill="white">
<path d="M45.9412 548L12 514.059L45.9412 480.118L79.8823 514.059L45.9412 548Z"/>
</mask>
<path d="M45.9412 548L12 514.059L45.9412 480.118L79.8823 514.059L45.9412 548Z" fill="#343434"/>
<path d="M49.9717 543.969L16.0305 510.028L7.96953 518.089L41.9107 552.031L49.9717 543.969ZM44.5269 481.532L78.4681 515.473L81.2965 512.645L47.3554 478.704L44.5269 481.532Z" fill="#555555" mask="url(#path-65-inside-15_24_2)"/>
<rect width="2" height="438" transform="matrix(0 -1 1 0 78 515)" fill="#555555"/>
<rect width="2" height="471" transform="matrix(0 -1 1 0 45 47)" fill="#555555"/>
<rect width="437" height="2" transform="matrix(0 -1 1 0 45 482)" fill="#555555"/>
<rect width="470" height="2" transform="matrix(0 -1 1 0 279 515)" fill="#555555"/>
<rect width="470" height="2" transform="matrix(0 -1 1 0 514 515)" fill="#555555"/>
<mask id="path-67-inside-16_24_2" fill="white">
<path d="M594 12L832 12V274H594V12Z"/>
</mask>
<path d="M594 12L832 12V274H594V12Z" fill="#343434"/>
<path d="M594 16L832 16V8L594 8V16ZM832 270H594V278H832V270Z" fill="#555555" mask="url(#path-67-inside-16_24_2)"/>
<mask id="path-69-outside-17_24_2" maskUnits="userSpaceOnUse" x="605" y="55" width="20" height="43" fill="black">
<rect fill="white" x="605" y="55" width="20" height="43"/>
<path d="M607 60C607 59.4477 607.448 59 608 59H622C622.552 59 623 59.4477 623 60V93C623 93.5523 622.552 94 622 94H608C607.448 94 607 93.5523 607 93V60Z"/>
</mask>
<path d="M607 60C607 59.4477 607.448 59 608 59H622C622.552 59 623 59.4477 623 60V93C623 93.5523 622.552 94 622 94H608C607.448 94 607 93.5523 607 93V60Z" fill="#242124"/>
<path d="M605 58C605 56.3431 606.343 55 608 55H622C623.657 55 625 56.3431 625 58L621 63H609L605 58ZM625 95C625 96.6569 623.657 98 622 98H608C606.343 98 605 96.6569 605 95L609 90H621L625 95ZM608 98C606.343 98 605 96.6569 605 95V58C605 56.3431 606.343 55 608 55L609 63V90L608 98ZM622 55C623.657 55 625 56.3431 625 58V95C625 96.6569 623.657 98 622 98L621 90V63L622 55Z" fill="#555555" mask="url(#path-69-outside-17_24_2)"/>
<mask id="path-71-inside-18_24_2" fill="white">
<path d="M609 61H621V81H609V61Z"/>
</mask>
<path d="M609 61H621V81H609V61Z" fill="#343434"/>
<path d="M609 61V62H621V61V60H609V61Z" fill="#555555" mask="url(#path-71-inside-18_24_2)"/>
<mask id="path-73-inside-19_24_2" fill="white">
<path d="M609 81H621V92H609V81Z"/>
</mask>
<path d="M609 81H621V92H609V81Z" fill="#555555"/>
<path d="M621 92V91H609V92V93H621V92Z" fill="#343434" mask="url(#path-73-inside-19_24_2)"/>
<mask id="path-75-outside-20_24_2" maskUnits="userSpaceOnUse" x="801" y="55" width="20" height="43" fill="black">
<rect fill="white" x="801" y="55" width="20" height="43"/>
<path d="M803 60C803 59.4477 803.448 59 804 59H818C818.552 59 819 59.4477 819 60V93C819 93.5523 818.552 94 818 94H804C803.448 94 803 93.5523 803 93V60Z"/>
</mask>
<path d="M803 60C803 59.4477 803.448 59 804 59H818C818.552 59 819 59.4477 819 60V93C819 93.5523 818.552 94 818 94H804C803.448 94 803 93.5523 803 93V60Z" fill="#242124"/>
<path d="M801 58C801 56.3431 802.343 55 804 55H818C819.657 55 821 56.3431 821 58L817 63H805L801 58ZM821 95C821 96.6569 819.657 98 818 98H804C802.343 98 801 96.6569 801 95L805 90H817L821 95ZM804 98C802.343 98 801 96.6569 801 95V58C801 56.3431 802.343 55 804 55L805 63V90L804 98ZM818 55C819.657 55 821 56.3431 821 58V95C821 96.6569 819.657 98 818 98L817 90V63L818 55Z" fill="#555555" mask="url(#path-75-outside-20_24_2)"/>
<mask id="path-77-inside-21_24_2" fill="white">
<path d="M805 61H817V81H805V61Z"/>
</mask>
<path d="M805 61H817V81H805V61Z" fill="#343434"/>
<path d="M805 61V62H817V61V60H805V61Z" fill="#555555" mask="url(#path-77-inside-21_24_2)"/>
<mask id="path-79-inside-22_24_2" fill="white">
<path d="M805 81H817V92H805V81Z"/>
</mask>
<path d="M805 81H817V92H805V81Z" fill="#555555"/>
<path d="M817 92V91H805V92V93H817V92Z" fill="#343434" mask="url(#path-79-inside-22_24_2)"/>
<path d="M611.407 223V213.2H612.709V221.698H616.055V223H611.407ZM618.864 223V213.2H620.166L622.77 219.738V213.2H624.072V223H622.77L620.166 216.462V223H618.864ZM626.649 223V213.2H631.857V214.488H627.951V216.924H630.555L630.261 218.226H627.951V221.698H631.857V223H626.649ZM634.686 220.088V218.772H638.62V220.088H634.686ZM641.453 223V213.2H642.755V223H641.453ZM646.717 223C646.447 223 646.213 222.902 646.017 222.706C645.821 222.51 645.723 222.272 645.723 221.992V217.932C645.723 217.717 645.784 217.526 645.905 217.358C646.027 217.181 646.181 217.059 646.367 216.994V214.208C646.367 213.928 646.465 213.69 646.661 213.494C646.857 213.298 647.095 213.2 647.375 213.2H649.265C649.536 213.2 649.769 213.298 649.965 213.494C650.161 213.69 650.259 213.928 650.259 214.208V216.994C650.455 217.059 650.614 217.181 650.735 217.358C650.857 217.526 650.917 217.717 650.917 217.932V221.992C650.917 222.272 650.819 222.51 650.623 222.706C650.427 222.902 650.189 223 649.909 223H646.717ZM648.173 216.924H648.467C648.607 216.924 648.724 216.877 648.817 216.784C648.92 216.681 648.971 216.56 648.971 216.42V215.006C648.971 214.866 648.92 214.749 648.817 214.656C648.724 214.553 648.607 214.502 648.467 214.502H648.173C648.033 214.502 647.912 214.553 647.809 214.656C647.716 214.749 647.669 214.866 647.669 215.006V216.42C647.669 216.56 647.716 216.681 647.809 216.784C647.912 216.877 648.033 216.924 648.173 216.924ZM647.515 221.698H649.111C649.251 221.698 649.368 221.651 649.461 221.558C649.564 221.455 649.615 221.334 649.615 221.194V218.73C649.615 218.59 649.564 218.473 649.461 218.38C649.368 218.277 649.251 218.226 649.111 218.226H647.515C647.385 218.226 647.268 218.277 647.165 218.38C647.063 218.473 647.011 218.59 647.011 218.73V221.194C647.011 221.334 647.063 221.455 647.165 221.558C647.268 221.651 647.385 221.698 647.515 221.698ZM657.383 223V213.2H661.583C661.854 213.2 662.087 213.298 662.283 213.494C662.489 213.69 662.591 213.928 662.591 214.208V217.218C662.591 217.498 662.489 217.736 662.283 217.932C662.087 218.128 661.854 218.226 661.583 218.226H658.685V223H657.383ZM658.685 216.924H660.785C660.925 216.924 661.042 216.877 661.135 216.784C661.238 216.681 661.289 216.56 661.289 216.42V214.992C661.289 214.861 661.238 214.749 661.135 214.656C661.042 214.553 660.925 214.502 660.785 214.502H658.685V216.924Z" fill="#FFF8E7"/>
<rect width="29" height="2" transform="matrix(1 0 0 -1 594 188)" fill="#FFF8E7"/>
<rect width="28" height="28" rx="14" transform="matrix(1 0 0 -1 623 201)" fill="#343434"/>
<rect width="28" height="28" rx="14" transform="matrix(1 0 0 -1 623 201)" stroke="#FFF8E7" stroke-width="2" stroke-linejoin="round"/>
<mask id="path-83-inside-23_24_2" fill="white">
<path d="M560 16C560 13.7909 561.791 12 564 12L595 12V274H564C561.791 274 560 272.209 560 270V16Z"/>
</mask>
<path d="M560 16C560 13.7909 561.791 12 564 12L595 12V274H564C561.791 274 560 272.209 560 270V16Z" fill="#343434"/>
<path d="M556 16C556 11.5817 559.582 8 564 8L595 8V16L564 16H556ZM595 278H564C559.582 278 556 274.418 556 270H564H595V278ZM564 278C559.582 278 556 274.418 556 270V16C556 11.5817 559.582 8 564 8V16V270V278ZM595 12V274V12Z" fill="#555555" mask="url(#path-83-inside-23_24_2)"/>
<g clip-path="url(#clip16_24_2)">
<rect x="572" y="250" width="12" height="12" rx="6" fill="#555555"/>
<rect x="577" y="250" width="2" height="12" fill="#343434"/>
<rect x="572" y="255" width="12" height="2" fill="#343434"/>
</g>
<g clip-path="url(#clip17_24_2)">
<rect x="572" y="262" width="12" height="12" rx="6" transform="rotate(-90 572 262)" fill="#555555"/>
<rect x="572" y="257" width="2" height="12" transform="rotate(-90 572 257)" fill="#343434"/>
<rect x="577" y="262" width="12" height="2" transform="rotate(-90 577 262)" fill="#343434"/>
</g>
<rect x="572.5" y="261.5" width="11" height="11" rx="5.5" transform="rotate(-90 572.5 261.5)" stroke="#555555"/>
<g clip-path="url(#clip18_24_2)">
<rect x="572" y="24.0001" width="12" height="12" rx="6" fill="#555555"/>
<rect x="577" y="24.0001" width="2" height="12" fill="#343434"/>
<rect x="572" y="29.0001" width="12" height="2" fill="#343434"/>
</g>
<g clip-path="url(#clip19_24_2)">
<rect x="572" y="36" width="12" height="12" rx="6" transform="rotate(-90 572 36)" fill="#555555"/>
<rect x="572" y="31" width="2" height="12" transform="rotate(-90 572 31)" fill="#343434"/>
<rect x="577" y="36" width="12" height="2" transform="rotate(-90 577 36)" fill="#343434"/>
</g>
<rect x="572.5" y="35.5" width="11" height="11" rx="5.5" transform="rotate(-90 572.5 35.5)" stroke="#555555"/>
<mask id="path-99-inside-24_24_2" fill="white">
<path d="M831 12L862 12C864.209 12 866 13.7909 866 16V240H831V12Z"/>
</mask>
<path d="M831 12L862 12C864.209 12 866 13.7909 866 16V240H831V12Z" fill="#343434"/>
<path d="M831 8L862 8C866.418 8 870 11.5817 870 16H862L831 16V8ZM866 240H831H866ZM831 240V12V240ZM862 8C866.418 8 870 11.5817 870 16V240H862V16V8Z" fill="#555555" mask="url(#path-99-inside-24_24_2)"/>
<g clip-path="url(#clip20_24_2)">
<rect x="842" y="24" width="12" height="12" rx="6" fill="#555555"/>
<rect x="847" y="24" width="2" height="12" fill="#343434"/>
<rect x="842" y="29" width="12" height="2" fill="#343434"/>
</g>
<g clip-path="url(#clip21_24_2)">
<rect x="842" y="36" width="12" height="12" rx="6" transform="rotate(-90 842 36)" fill="#555555"/>
<rect x="842" y="31" width="2" height="12" transform="rotate(-90 842 31)" fill="#343434"/>
<rect x="847" y="36" width="12" height="2" transform="rotate(-90 847 36)" fill="#343434"/>
</g>
<rect x="842.5" y="35.5" width="11" height="11" rx="5.5" transform="rotate(-90 842.5 35.5)" stroke="#555555"/>
<mask id="path-108-inside-25_24_2" fill="white">
<path d="M798 239.94L831.941 205.999L865.882 239.94L831.941 273.881L798 239.94Z"/>
</mask>
<path d="M798 239.94L831.941 205.999L865.882 239.94L831.941 273.881L798 239.94Z" fill="#343434"/>
<path d="M799.414 241.354L833.355 207.413L830.527 204.585L796.586 238.526L799.414 241.354ZM861.852 235.909L827.911 269.851L835.972 277.912L869.913 243.97L861.852 235.909Z" fill="#555555" mask="url(#path-108-inside-25_24_2)"/>
<rect width="2" height="196" transform="translate(593 45)" fill="#555555"/>
<rect width="2" height="162" transform="translate(831 45)" fill="#555555"/>
<rect width="240" height="2" transform="translate(593 45)" fill="#555555"/>
<rect width="206" height="2" transform="translate(593 239)" fill="#555555"/>
<mask id="path-110-inside-26_24_2" fill="white">
<path d="M594 548H832V286H594V548Z"/>
</mask>
<path d="M594 548H832V286H594V548Z" fill="#343434"/>
<path d="M594 544H832V552H594V544ZM832 290H594V282H832V290Z" fill="#555555" mask="url(#path-110-inside-26_24_2)"/>
<rect width="238" height="194" transform="matrix(1 0 0 -1 594 514)" fill="#242124"/>
<mask id="path-112-inside-27_24_2" fill="white">
<path d="M560 544C560 546.209 561.791 548 564 548H595V286H564C561.791 286 560 287.791 560 290V544Z"/>
</mask>
<path d="M560 544C560 546.209 561.791 548 564 548H595V286H564C561.791 286 560 287.791 560 290V544Z" fill="#343434"/>
<path d="M556 544C556 548.418 559.582 552 564 552H595V544H564H556ZM595 282H564C559.582 282 556 285.582 556 290H564H595V282ZM564 282C559.582 282 556 285.582 556 290V544C556 548.418 559.582 552 564 552V544V290V282ZM595 548V286V548Z" fill="#555555" mask="url(#path-112-inside-27_24_2)"/>
<g clip-path="url(#clip22_24_2)">
<rect width="12" height="12" rx="6" transform="matrix(1 0 0 -1 572 310)" fill="#343434"/>
<rect width="2" height="12" transform="matrix(1 0 0 -1 577 310)" fill="#555555"/>
<rect width="12" height="2" transform="matrix(1 0 0 -1 572 305)" fill="#555555"/>
</g>
<rect x="0.5" y="-0.5" width="11" height="11" rx="5.5" transform="matrix(1 0 0 -1 572 309)" stroke="#343434"/>
<g clip-path="url(#clip23_24_2)">
<rect x="572" y="310" width="12" height="12" rx="6" transform="rotate(-90 572 310)" fill="#555555"/>
<rect x="572" y="305" width="2" height="12" transform="rotate(-90 572 305)" fill="#343434"/>
<rect x="577" y="310" width="12" height="2" transform="rotate(-90 577 310)" fill="#343434"/>
</g>
<rect x="572.5" y="309.5" width="11" height="11" rx="5.5" transform="rotate(-90 572.5 309.5)" stroke="#555555"/>
<g clip-path="url(#clip24_24_2)">
<rect width="12" height="12" rx="6" transform="matrix(1 0 0 -1 572 536)" fill="#343434"/>
<rect width="2" height="12" transform="matrix(1 0 0 -1 577 536)" fill="#555555"/>
<rect width="12" height="2" transform="matrix(1 0 0 -1 572 531)" fill="#555555"/>
</g>
<rect x="0.5" y="-0.5" width="11" height="11" rx="5.5" transform="matrix(1 0 0 -1 572 535)" stroke="#343434"/>
<g clip-path="url(#clip25_24_2)">
<rect x="572" y="536" width="12" height="12" rx="6" transform="rotate(-90 572 536)" fill="#555555"/>
<rect x="572" y="531" width="2" height="12" transform="rotate(-90 572 531)" fill="#343434"/>
<rect x="577" y="536" width="12" height="2" transform="rotate(-90 577 536)" fill="#343434"/>
</g>
<rect x="572.5" y="535.5" width="11" height="11" rx="5.5" transform="rotate(-90 572.5 535.5)" stroke="#555555"/>
<mask id="path-130-inside-28_24_2" fill="white">
<path d="M831 548H862C864.209 548 866 546.209 866 544V320H831V548Z"/>
</mask>
<path d="M831 548H862C864.209 548 866 546.209 866 544V320H831V548Z" fill="#343434"/>
<path d="M831 552H862C866.418 552 870 548.418 870 544H862H831V552ZM870 316H831V324H862L870 316ZM831 320V548V320ZM862 552C866.418 552 870 548.418 870 544V316L862 324V544V552Z" fill="#555555" mask="url(#path-130-inside-28_24_2)"/>
<g clip-path="url(#clip26_24_2)">
<rect width="12" height="12" rx="6" transform="matrix(1 0 0 -1 842 536)" fill="#343434"/>
<rect width="2" height="12" transform="matrix(1 0 0 -1 847 536)" fill="#555555"/>
<rect width="12" height="2" transform="matrix(1 0 0 -1 842 531)" fill="#555555"/>
</g>
<rect x="0.5" y="-0.5" width="11" height="11" rx="5.5" transform="matrix(1 0 0 -1 842 535)" stroke="#343434"/>
<g clip-path="url(#clip27_24_2)">
<rect x="842" y="536" width="12" height="12" rx="6" transform="rotate(-90 842 536)" fill="#555555"/>
<rect x="842" y="531" width="2" height="12" transform="rotate(-90 842 531)" fill="#343434"/>
<rect x="847" y="536" width="12" height="2" transform="rotate(-90 847 536)" fill="#343434"/>
</g>
<rect x="842.5" y="535.5" width="11" height="11" rx="5.5" transform="rotate(-90 842.5 535.5)" stroke="#555555"/>
<mask id="path-140-inside-29_24_2" fill="white">
<path d="M798 320.06L831.941 354.001L865.882 320.06L831.941 286.119L798 320.06Z"/>
</mask>
<path d="M798 320.06L831.941 354.001L865.882 320.06L831.941 286.119L798 320.06Z" fill="#343434"/>
<path d="M799.414 318.646L833.355 352.587L830.527 355.415L796.586 321.474L799.414 318.646ZM861.852 324.091L827.911 290.149L835.972 282.088L869.913 316.03L861.852 324.091Z" fill="#555555" mask="url(#path-140-inside-29_24_2)"/>
<rect width="2" height="196" transform="matrix(1 0 0 -1 593 515)" fill="#555555"/>
<rect width="2" height="162" transform="matrix(1 0 0 -1 831 515)" fill="#555555"/>
<rect width="240" height="2" transform="matrix(1 0 0 -1 593 515)" fill="#555555"/>
<rect width="206" height="2" transform="matrix(1 0 0 -1 593 321)" fill="#555555"/>
<mask id="path-142-inside-30_24_2" fill="white">
<path d="M1559 548H950V286L1559 286V548Z"/>
</mask>
<path d="M1559 548H950V286L1559 286V548Z" fill="#343434"/>
<path d="M1559 544H950V552H1559V544ZM950 290L1559 290V282L950 282V290Z" fill="#555555" mask="url(#path-142-inside-30_24_2)"/>
<rect width="609" height="194" transform="matrix(-1 0 0 -1 1559 514)" fill="#242124"/>
<mask id="path-144-inside-31_24_2" fill="white">
<path d="M1593 544C1593 546.209 1591.21 548 1589 548H1558V286H1589C1591.21 286 1593 287.791 1593 290V544Z"/>
</mask>
<path d="M1593 544C1593 546.209 1591.21 548 1589 548H1558V286H1589C1591.21 286 1593 287.791 1593 290V544Z" fill="#343434"/>
<path d="M1597 544C1597 548.418 1593.42 552 1589 552H1558V544H1589H1597ZM1558 282H1589C1593.42 282 1597 285.582 1597 290H1589H1558V282ZM1589 282C1593.42 282 1597 285.582 1597 290V544C1597 548.418 1593.42 552 1589 552V544V290V282ZM1558 548V286V548Z" fill="#555555" mask="url(#path-144-inside-31_24_2)"/>
<g clip-path="url(#clip28_24_2)">
<rect x="1581" y="310" width="12" height="12" rx="6" transform="rotate(180 1581 310)" fill="#343434"/>
<rect x="1576" y="310" width="2" height="12" transform="rotate(180 1576 310)" fill="#555555"/>
<rect x="1581" y="305" width="12" height="2" transform="rotate(180 1581 305)" fill="#555555"/>
</g>
<rect x="1580.5" y="309.5" width="11" height="11" rx="5.5" transform="rotate(180 1580.5 309.5)" stroke="#343434"/>
<g clip-path="url(#clip29_24_2)">
<rect x="1569" y="310" width="12" height="12" rx="6" transform="rotate(-90 1569 310)" fill="#555555"/>
<rect x="1569" y="305" width="2" height="12" transform="rotate(-90 1569 305)" fill="#343434"/>
<rect x="1574" y="310" width="12" height="2" transform="rotate(-90 1574 310)" fill="#343434"/>
</g>
<rect x="1569.5" y="309.5" width="11" height="11" rx="5.5" transform="rotate(-90 1569.5 309.5)" stroke="#555555"/>
<g clip-path="url(#clip30_24_2)">
<rect x="1581" y="536" width="12" height="12" rx="6" transform="rotate(180 1581 536)" fill="#343434"/>
<rect x="1576" y="536" width="2" height="12" transform="rotate(180 1576 536)" fill="#555555"/>
<rect x="1581" y="531" width="12" height="2" transform="rotate(180 1581 531)" fill="#555555"/>
</g>
<rect x="1580.5" y="535.5" width="11" height="11" rx="5.5" transform="rotate(180 1580.5 535.5)" stroke="#343434"/>
<g clip-path="url(#clip31_24_2)">
<rect x="1569" y="536" width="12" height="12" rx="6" transform="rotate(-90 1569 536)" fill="#555555"/>
<rect x="1569" y="531" width="2" height="12" transform="rotate(-90 1569 531)" fill="#343434"/>
<rect x="1574" y="536" width="12" height="2" transform="rotate(-90 1574 536)" fill="#343434"/>
</g>
<rect x="1569.5" y="535.5" width="11" height="11" rx="5.5" transform="rotate(-90 1569.5 535.5)" stroke="#555555"/>
<mask id="path-162-inside-32_24_2" fill="white">
<path d="M951 548H920C917.791 548 916 546.209 916 544V320H951V548Z"/>
</mask>
<path d="M951 548H920C917.791 548 916 546.209 916 544V320H951V548Z" fill="#343434"/>
<path d="M951 552H920C915.582 552 912 548.418 912 544H920H951V552ZM916 320H951H916ZM951 320V548V320ZM920 552C915.582 552 912 548.418 912 544V320H920V544V552Z" fill="#555555" mask="url(#path-162-inside-32_24_2)"/>
<g clip-path="url(#clip32_24_2)">
<rect x="940" y="536" width="12" height="12" rx="6" transform="rotate(180 940 536)" fill="#343434"/>
<rect x="935" y="536" width="2" height="12" transform="rotate(180 935 536)" fill="#555555"/>
<rect x="940" y="531" width="12" height="2" transform="rotate(180 940 531)" fill="#555555"/>
</g>
<rect x="939.5" y="535.5" width="11" height="11" rx="5.5" transform="rotate(180 939.5 535.5)" stroke="#343434"/>
<g clip-path="url(#clip33_24_2)">
<rect x="928" y="536" width="12" height="12" rx="6" transform="rotate(-90 928 536)" fill="#555555"/>
<rect x="928" y="531" width="2" height="12" transform="rotate(-90 928 531)" fill="#343434"/>
<rect x="933" y="536" width="12" height="2" transform="rotate(-90 933 536)" fill="#343434"/>
</g>
<rect x="928.5" y="535.5" width="11" height="11" rx="5.5" transform="rotate(-90 928.5 535.5)" stroke="#555555"/>
<mask id="path-172-inside-33_24_2" fill="white">
<path d="M984 320.06L950.059 354.001L916.118 320.06L950.059 286.119L984 320.06Z"/>
</mask>
<path d="M984 320.06L950.059 354.001L916.118 320.06L950.059 286.119L984 320.06Z" fill="#343434"/>
<path d="M982.586 318.646L948.645 352.587L951.473 355.415L985.414 321.474L982.586 318.646ZM920.148 324.091L954.089 290.149L946.028 282.088L912.087 316.03L920.148 324.091Z" fill="#555555" mask="url(#path-172-inside-33_24_2)"/>
<rect width="2" height="196" transform="matrix(-1 0 0 -1 1560 515)" fill="#555555"/>
<rect width="2" height="162" transform="matrix(-1 0 0 -1 951 515)" fill="#555555"/>
<rect width="611" height="2" transform="matrix(-1 0 0 -1 1560 515)" fill="#555555"/>
<rect width="577" height="2" transform="matrix(-1 0 0 -1 1560 321)" fill="#555555"/>
<g clip-path="url(#clip34_24_2)">
<mask id="path-174-inside-34_24_2" fill="white">
<path d="M1559 46L950 46V274H1559V46Z"/>
</mask>
<path d="M1559 46L950 46V274H1559V46Z" fill="#343434"/>
<rect width="56" height="2" transform="matrix(0 -1 -1 0 1495 136)" fill="#555555"/>
<rect width="80" height="2" transform="matrix(0 -1 -1 0 1412 240)" fill="#555555"/>
<rect width="39" height="3" transform="matrix(0 -1 -1 0 1031 240)" fill="#FFF8E7"/>
<rect width="38" height="3" transform="matrix(0 -1 -1 0 1031 118)" fill="#FFF8E7"/>
<rect width="80" height="2" transform="matrix(0 -1 -1 0 1521 240)" fill="#555555"/>
<rect width="39" height="2" transform="matrix(1 0 0 -1 1520 162)" fill="#555555"/>
<rect width="58" height="2" transform="matrix(1 0 0 -1 1436 136)" fill="#555555"/>
<rect width="38.7955" height="1.78486" transform="matrix(0.707107 0.707107 0.707107 -0.707107 1492.28 135)" fill="#555555"/>
<rect width="36.7639" height="1.78486" transform="translate(1437.25 135.251) rotate(135)" fill="#555555"/>
<g clip-path="url(#clip35_24_2)">
<path d="M1533.81 216.625C1533.81 215.729 1534.54 215 1535.44 215H1539.5C1540.4 215 1541.12 215.729 1541.12 216.625V221.5H1541.33C1542.56 221.5 1543.56 222.5 1543.56 223.734V224.547C1543.56 224.885 1543.83 225.156 1544.17 225.156C1544.51 225.156 1544.78 224.885 1544.78 224.547V220.637C1544.08 220.456 1543.56 219.819 1543.56 219.062V217.438L1542.75 216.625C1542.53 216.402 1542.53 216.036 1542.75 215.812C1542.97 215.589 1543.34 215.589 1543.56 215.812L1545.53 217.775C1545.83 218.08 1546 218.494 1546 218.925V219.268V219.878V220.69V224.549C1546 225.56 1545.18 226.378 1544.17 226.378C1543.16 226.378 1542.34 225.56 1542.34 224.549V223.737C1542.34 223.176 1541.89 222.721 1541.33 222.721H1541.12V226.378C1541.57 226.378 1541.94 226.741 1541.94 227.19C1541.94 227.639 1541.57 228.003 1541.12 228.003L1533.81 228C1533.36 228 1533 227.637 1533 227.188C1533 226.738 1533.36 226.375 1533.81 226.375V216.625ZM1535.44 217.031V219.469C1535.44 219.692 1535.62 219.875 1535.84 219.875H1539.09C1539.32 219.875 1539.5 219.692 1539.5 219.469V217.031C1539.5 216.808 1539.32 216.625 1539.09 216.625H1535.84C1535.62 216.625 1535.44 216.808 1535.44 217.031Z" fill="#FFF8E7"/>
</g>
<path d="M1533 175C1533 173.895 1533.9 173 1535 173H1544C1545.1 173 1546 173.895 1546 175V207C1546 208.105 1545.1 209 1544 209H1535C1533.9 209 1533 208.105 1533 207V175Z" fill="#555555"/>
<rect width="2" height="37" transform="matrix(0 1 1 0 1517 151)" fill="#242124"/>
<rect width="2" height="43" transform="matrix(0 1 1 0 1511 145)" fill="#242124"/>
<rect width="2" height="49" transform="matrix(0 1 1 0 1505 139)" fill="#242124"/>
<rect width="2" height="55" transform="matrix(0 1 1 0 1499 133)" fill="#242124"/>
<rect width="2" height="55" transform="matrix(0 1 1 0 1499 127)" fill="#242124"/>
<rect width="2" height="55" transform="matrix(0 1 1 0 1499 121)" fill="#242124"/>
<rect width="2" height="55" transform="matrix(0 1 1 0 1499 115)" fill="#242124"/>
<rect width="2" height="55" transform="matrix(0 1 1 0 1499 109)" fill="#242124"/>
<rect width="2" height="55" transform="matrix(0 1 1 0 1499 103)" fill="#242124"/>
<rect width="2" height="55" transform="matrix(0 1 1 0 1499 97)" fill="#242124"/>
<rect width="2" height="55" transform="matrix(0 1 1 0 1499 91)" fill="#242124"/>
<rect width="2" height="55" transform="matrix(0 1 1 0 1499 85)" fill="#242124"/>
<g clip-path="url(#clip36_24_2)">
<rect width="12" height="12" rx="6" transform="matrix(0 1 1 0 1257 58)" fill="#555555"/>
<rect width="2" height="12" transform="matrix(0 1 1 0 1257 63)" fill="#343434"/>
<rect width="12" height="2" transform="matrix(0 1 1 0 1262 58)" fill="#343434"/>
</g>
<rect x="0.5" y="0.5" width="11" height="11" rx="5.5" transform="matrix(0 1 1 0 1257 58)" stroke="#555555"/>
<g clip-path="url(#clip37_24_2)">
<path d="M1097 161H1233V159C1233 121.445 1202.56 91 1165 91C1127.44 91 1097 121.445 1097 159V161Z" fill="#555555"/>
<rect x="2" y="-2" width="124" height="124" rx="62" transform="matrix(1 0 0 -1 1101 219)" fill="#242124"/>
<rect x="2" y="-2" width="124" height="124" rx="62" transform="matrix(1 0 0 -1 1101 219)" stroke="#555555" stroke-width="4"/>
</g>
<g clip-path="url(#clip38_24_2)">
<path d="M1252 161H1388V159C1388 121.445 1357.56 91 1320 91C1282.44 91 1252 121.445 1252 159V161Z" fill="#555555"/>
<rect x="2" y="-2" width="124" height="124" rx="62" transform="matrix(1 0 0 -1 1256 219)" fill="#242124"/>
<rect x="2" y="-2" width="124" height="124" rx="62" transform="matrix(1 0 0 -1 1256 219)" stroke="#555555" stroke-width="4"/>
</g>
<rect width="83" height="83" rx="41.5" transform="matrix(1 0 0 -1 988 201)" fill="#343434"/>
<rect width="83" height="83" rx="41.5" transform="matrix(1 0 0 -1 988 201)" stroke="#FFF8E7" stroke-width="2" stroke-linejoin="round"/>
<path d="M968.123 107C967.843 107 967.605 106.902 967.409 106.706C967.213 106.51 967.115 106.272 967.115 105.992V97.2H968.417V105.208C968.417 105.339 968.463 105.455 968.557 105.558C968.659 105.651 968.781 105.698 968.921 105.698H970.503C970.643 105.698 970.759 105.651 970.853 105.558C970.955 105.455 971.007 105.339 971.007 105.208V97.2H972.309V105.992C972.309 106.272 972.211 106.51 972.015 106.706C971.819 106.902 971.581 107 971.301 107H968.123ZM974.886 107L976.776 102.226H976.034L976.552 100.924H977.294L978.26 98.502H974.886V97.2H980.08L978.596 100.924H979.352L978.848 102.226H978.078L976.692 105.698H980.08V107H974.886ZM982.909 107V100H985.835C986.115 100 986.353 100.103 986.549 100.308C986.755 100.504 986.857 100.742 986.857 101.022V102.548L985.541 102.254V101.834C985.541 101.694 985.49 101.573 985.387 101.47C985.294 101.367 985.177 101.316 985.037 101.316H984.225V107H982.909ZM989.69 107V97.2H990.992V100.924H993.596V97.2H994.884V107H993.596V102.226H990.992V107H989.69Z" fill="#FFF8E7"/>
<g clip-path="url(#clip39_24_2)">
<rect width="8" height="8" rx="4" transform="matrix(0 1 1 0 1508 228)" fill="#555555"/>
<rect width="2" height="8" transform="matrix(0 1 1 0 1508 231)" fill="#343434"/>
<rect width="8" height="2" transform="matrix(0 1 1 0 1511 228)" fill="#343434"/>
</g>
<rect x="0.5" y="0.5" width="7" height="7" rx="3.5" transform="matrix(0 1 1 0 1508 228)" stroke="#555555"/>
</g>
<path d="M1559 50L950 50V42L1559 42V50ZM950 270H1559V278H950V270Z" fill="#555555" mask="url(#path-174-inside-34_24_2)"/>
<g clip-path="url(#clip40_24_2)">
<mask id="path-192-inside-35_24_2" fill="white">
<path d="M1593 50C1593 47.7909 1591.21 46 1589 46H1558V274H1589C1591.21 274 1593 272.209 1593 270V50Z"/>
</mask>
<path d="M1593 50C1593 47.7909 1591.21 46 1589 46H1558V274H1589C1591.21 274 1593 272.209 1593 270V50Z" fill="#343434"/>
<g clip-path="url(#clip41_24_2)">
<rect width="12" height="12" rx="6" transform="matrix(-1 0 0 1 1581 58.0001)" fill="#343434"/>
<rect width="2" height="12" transform="matrix(-1 0 0 1 1576 58.0001)" fill="#555555"/>
<rect width="12" height="2" transform="matrix(-1 0 0 1 1581 63.0001)" fill="#555555"/>
</g>
<rect x="-0.5" y="0.5" width="11" height="11" rx="5.5" transform="matrix(-1 0 0 1 1580 58.0001)" stroke="#343434"/>
<g clip-path="url(#clip42_24_2)">
<rect width="12" height="12" rx="6" transform="matrix(0 1 1 0 1569 58)" fill="#555555"/>
<rect width="2" height="12" transform="matrix(0 1 1 0 1569 63)" fill="#343434"/>
<rect width="12" height="2" transform="matrix(0 1 1 0 1574 58)" fill="#343434"/>
</g>
<rect x="0.5" y="0.5" width="11" height="11" rx="5.5" transform="matrix(0 1 1 0 1569 58)" stroke="#555555"/>
<g clip-path="url(#clip43_24_2)">
<rect width="12" height="12" rx="6" transform="matrix(0 1 1 0 1569 250)" fill="#555555"/>
<rect width="2" height="12" transform="matrix(0 1 1 0 1569 255)" fill="#343434"/>
<rect width="12" height="2" transform="matrix(0 1 1 0 1574 250)" fill="#343434"/>
</g>
<rect x="0.5" y="0.5" width="11" height="11" rx="5.5" transform="matrix(0 1 1 0 1569 250)" stroke="#555555"/>
</g>
<path d="M1597 50C1597 45.5817 1593.42 42 1589 42H1558V50H1589H1597ZM1558 278H1589C1593.42 278 1597 274.418 1597 270H1589H1558V278ZM1589 278C1593.42 278 1597 274.418 1597 270V50C1597 45.5817 1593.42 42 1589 42V50V270V278ZM1558 46V274V46Z" fill="#555555" mask="url(#path-192-inside-35_24_2)"/>
<mask id="path-206-inside-36_24_2" fill="white">
<path d="M951 46H920C917.791 46 916 47.7909 916 50V240H951V46Z"/>
</mask>
<path d="M951 46H920C917.791 46 916 47.7909 916 50V240H951V46Z" fill="#343434"/>
<path d="M951 42H920C915.582 42 912 45.5817 912 50H920H951V42ZM916 240H951H916ZM951 240V46V240ZM920 42C915.582 42 912 45.5817 912 50V240H920V50V42Z" fill="#555555" mask="url(#path-206-inside-36_24_2)"/>
<g clip-path="url(#clip44_24_2)">
<rect width="12" height="12" rx="6" transform="matrix(-1 0 0 1 940 58)" fill="#343434"/>
<rect width="2" height="12" transform="matrix(-1 0 0 1 935 58)" fill="#555555"/>
<rect width="12" height="2" transform="matrix(-1 0 0 1 940 63)" fill="#555555"/>
</g>
<rect x="-0.5" y="0.5" width="11" height="11" rx="5.5" transform="matrix(-1 0 0 1 939 58)" stroke="#343434"/>
<g clip-path="url(#clip45_24_2)">
<rect width="12" height="12" rx="6" transform="matrix(0 1 1 0 928 58)" fill="#555555"/>
<rect width="2" height="12" transform="matrix(0 1 1 0 928 63)" fill="#343434"/>
<rect width="12" height="2" transform="matrix(0 1 1 0 933 58)" fill="#343434"/>
</g>
<rect x="0.5" y="0.5" width="11" height="11" rx="5.5" transform="matrix(0 1 1 0 928 58)" stroke="#555555"/>
<mask id="path-216-inside-37_24_2" fill="white">
<path d="M984 239.94L950.059 205.999L916.118 239.94L950.059 273.881L984 239.94Z"/>
</mask>
<path d="M984 239.94L950.059 205.999L916.118 239.94L950.059 273.881L984 239.94Z" fill="#343434"/>
<path d="M982.586 241.354L948.645 207.413L951.473 204.585L985.414 238.526L982.586 241.354ZM920.148 235.909L954.089 269.851L946.028 277.912L912.087 243.97L920.148 235.909Z" fill="#555555" mask="url(#path-216-inside-37_24_2)"/>
<rect width="2" height="162" transform="matrix(-1 0 0 1 1560 79)" fill="#555555"/>
<rect width="2" height="128" transform="matrix(-1 0 0 1 951 79)" fill="#555555"/>
<rect width="611" height="2" transform="matrix(-1 0 0 1 1560 79)" fill="#555555"/>
<rect width="577" height="2" transform="matrix(-1 0 0 1 1560 239)" fill="#555555"/>
<g clip-path="url(#clip46_24_2)">
<g clip-path="url(#clip47_24_2)">
<rect width="71.88" height="71.88" rx="4" transform="matrix(0.707107 -0.707107 -0.707107 -0.707107 890.912 330.739)" fill="#343434"/>
<g clip-path="url(#clip48_24_2)">
<rect x="852.3" y="273.912" width="12" height="12" rx="6" fill="#555555"/>
<rect x="857.3" y="273.912" width="2" height="12" fill="#343434"/>
<rect x="852.3" y="278.912" width="12" height="2" fill="#343434"/>
</g>
<rect x="852.8" y="274.412" width="11" height="11" rx="5.5" stroke="#555555"/>
<g clip-path="url(#clip49_24_2)">
<rect x="884.912" y="241.3" width="12" height="12" rx="6" fill="#555555"/>
<rect x="889.912" y="241.3" width="2" height="12" fill="#343434"/>
<rect x="884.912" y="246.3" width="12" height="2" fill="#343434"/>
</g>
<rect x="885.412" y="241.8" width="11" height="11" rx="5.5" stroke="#555555"/>
<g clip-path="url(#clip50_24_2)">
<rect x="917.523" y="273.912" width="12" height="12" rx="6" fill="#555555"/>
<rect x="922.523" y="273.912" width="2" height="12" fill="#343434"/>
<rect x="917.523" y="278.912" width="12" height="2" fill="#343434"/>
</g>
<rect x="918.023" y="274.412" width="11" height="11" rx="5.5" stroke="#555555"/>
<g clip-path="url(#clip51_24_2)">
<rect x="884.912" y="306.524" width="12" height="12" rx="6" fill="#555555"/>
<rect x="889.912" y="306.524" width="2" height="12" fill="#343434"/>
<rect x="884.912" y="311.524" width="12" height="2" fill="#343434"/>
</g>
<rect x="885.412" y="307.024" width="11" height="11" rx="5.5" stroke="#555555"/>
</g>
<rect y="-2.82843" width="67.88" height="67.88" rx="2" transform="matrix(0.707107 -0.707107 -0.707107 -0.707107 888.912 325.91)" stroke="#555555" stroke-width="4"/>
</g>
<g clip-path="url(#clip52_24_2)">
<rect width="8" height="8" rx="4" transform="matrix(0 1 1 0 1415 228)" fill="#555555"/>
<rect width="2" height="8" transform="matrix(0 1 1 0 1415 231)" fill="#343434"/>
<rect width="8" height="2" transform="matrix(0 1 1 0 1418 228)" fill="#343434"/>
</g>
<rect x="0.5" y="0.5" width="7" height="7" rx="3.5" transform="matrix(0 1 1 0 1415 228)" stroke="#555555"/>
<g clip-path="url(#clip53_24_2)">
<rect width="8" height="8" rx="4" transform="matrix(0 1 1 0 1461 139)" fill="#555555"/>
<rect width="2" height="8" transform="matrix(0 1 1 0 1461 142)" fill="#343434"/>
<rect width="8" height="2" transform="matrix(0 1 1 0 1464 139)" fill="#343434"/>
</g>
<rect x="0.5" y="0.5" width="7" height="7" rx="3.5" transform="matrix(0 1 1 0 1461 139)" stroke="#555555"/>
</g>
<defs>
<clipPath id="clip0_24_2">
<rect width="1923" height="560" fill="white"/>
</clipPath>
<clipPath id="clip1_24_2">
<rect width="1923" height="560" fill="white"/>
</clipPath>
<clipPath id="clip2_24_2">
<path d="M974 0L1248 0V36L974 36V0Z" fill="white"/>
</clipPath>
<clipPath id="clip3_24_2">
<path d="M1639 12L1877 12V548H1639V12Z" fill="white"/>
</clipPath>
<clipPath id="clip4_24_2">
<rect x="1617" y="524" width="12" height="12" rx="6" fill="white"/>
</clipPath>
<clipPath id="clip5_24_2">
<rect x="1617" y="536" width="12" height="12" rx="6" transform="rotate(-90 1617 536)" fill="white"/>
</clipPath>
<clipPath id="clip6_24_2">
<rect x="1887" y="24" width="12" height="12" rx="6" fill="white"/>
</clipPath>
<clipPath id="clip7_24_2">
<rect x="1887" y="36" width="12" height="12" rx="6" transform="rotate(-90 1887 36)" fill="white"/>
</clipPath>
<clipPath id="clip8_24_2">
<path d="M12 514L12 46H548V514H12Z" fill="white"/>
</clipPath>
<clipPath id="clip9_24_2">
<rect x="24" y="286" width="12" height="12" rx="6" transform="rotate(-90 24 286)" fill="white"/>
</clipPath>
<clipPath id="clip10_24_2">
<rect x="524" y="286" width="12" height="12" rx="6" transform="rotate(-90 524 286)" fill="white"/>
</clipPath>
<clipPath id="clip11_24_2">
<path d="M46 548V513H548V544C548 546.209 546.209 548 544 548H46Z" fill="white"/>
</clipPath>
<clipPath id="clip12_24_2">
<rect x="524" y="536" width="12" height="12" rx="6" transform="rotate(-90 524 536)" fill="white"/>
</clipPath>
<clipPath id="clip13_24_2">
<path d="M12 47V16C12 13.7909 13.7909 12 16 12H544C546.209 12 548 13.7909 548 16V47H12Z" fill="white"/>
</clipPath>
<clipPath id="clip14_24_2">
<rect x="24" y="36" width="12" height="12" rx="6" transform="rotate(-90 24 36)" fill="white"/>
</clipPath>
<clipPath id="clip15_24_2">
<rect x="524" y="36" width="12" height="12" rx="6" transform="rotate(-90 524 36)" fill="white"/>
</clipPath>
<clipPath id="clip16_24_2">
<rect x="572" y="250" width="12" height="12" rx="6" fill="white"/>
</clipPath>
<clipPath id="clip17_24_2">
<rect x="572" y="262" width="12" height="12" rx="6" transform="rotate(-90 572 262)" fill="white"/>
</clipPath>
<clipPath id="clip18_24_2">
<rect x="572" y="24.0001" width="12" height="12" rx="6" fill="white"/>
</clipPath>
<clipPath id="clip19_24_2">
<rect x="572" y="36" width="12" height="12" rx="6" transform="rotate(-90 572 36)" fill="white"/>
</clipPath>
<clipPath id="clip20_24_2">
<rect x="842" y="24" width="12" height="12" rx="6" fill="white"/>
</clipPath>
<clipPath id="clip21_24_2">
<rect x="842" y="36" width="12" height="12" rx="6" transform="rotate(-90 842 36)" fill="white"/>
</clipPath>
<clipPath id="clip22_24_2">
<rect width="12" height="12" rx="6" transform="matrix(1 0 0 -1 572 310)" fill="white"/>
</clipPath>
<clipPath id="clip23_24_2">
<rect x="572" y="310" width="12" height="12" rx="6" transform="rotate(-90 572 310)" fill="white"/>
</clipPath>
<clipPath id="clip24_24_2">
<rect width="12" height="12" rx="6" transform="matrix(1 0 0 -1 572 536)" fill="white"/>
</clipPath>
<clipPath id="clip25_24_2">
<rect x="572" y="536" width="12" height="12" rx="6" transform="rotate(-90 572 536)" fill="white"/>
</clipPath>
<clipPath id="clip26_24_2">
<rect width="12" height="12" rx="6" transform="matrix(1 0 0 -1 842 536)" fill="white"/>
</clipPath>
<clipPath id="clip27_24_2">
<rect x="842" y="536" width="12" height="12" rx="6" transform="rotate(-90 842 536)" fill="white"/>
</clipPath>
<clipPath id="clip28_24_2">
<rect x="1581" y="310" width="12" height="12" rx="6" transform="rotate(180 1581 310)" fill="white"/>
</clipPath>
<clipPath id="clip29_24_2">
<rect x="1569" y="310" width="12" height="12" rx="6" transform="rotate(-90 1569 310)" fill="white"/>
</clipPath>
<clipPath id="clip30_24_2">
<rect x="1581" y="536" width="12" height="12" rx="6" transform="rotate(180 1581 536)" fill="white"/>
</clipPath>
<clipPath id="clip31_24_2">
<rect x="1569" y="536" width="12" height="12" rx="6" transform="rotate(-90 1569 536)" fill="white"/>
</clipPath>
<clipPath id="clip32_24_2">
<rect x="940" y="536" width="12" height="12" rx="6" transform="rotate(180 940 536)" fill="white"/>
</clipPath>
<clipPath id="clip33_24_2">
<rect x="928" y="536" width="12" height="12" rx="6" transform="rotate(-90 928 536)" fill="white"/>
</clipPath>
<clipPath id="clip34_24_2">
<path d="M1559 46L950 46V274H1559V46Z" fill="white"/>
</clipPath>
<clipPath id="clip35_24_2">
<rect width="13" height="13" fill="white" transform="translate(1533 215)"/>
</clipPath>
<clipPath id="clip36_24_2">
<rect width="12" height="12" rx="6" transform="matrix(0 1 1 0 1257 58)" fill="white"/>
</clipPath>
<clipPath id="clip37_24_2">
<rect width="136" height="136" fill="white" transform="translate(1097 91)"/>
</clipPath>
<clipPath id="clip38_24_2">
<rect width="136" height="136" fill="white" transform="translate(1252 91)"/>
</clipPath>
<clipPath id="clip39_24_2">
<rect width="8" height="8" rx="4" transform="matrix(0 1 1 0 1508 228)" fill="white"/>
</clipPath>
<clipPath id="clip40_24_2">
<path d="M1593 50C1593 47.7909 1591.21 46 1589 46H1558V274H1589C1591.21 274 1593 272.209 1593 270V50Z" fill="white"/>
</clipPath>
<clipPath id="clip41_24_2">
<rect width="12" height="12" rx="6" transform="matrix(-1 0 0 1 1581 58.0001)" fill="white"/>
</clipPath>
<clipPath id="clip42_24_2">
<rect width="12" height="12" rx="6" transform="matrix(0 1 1 0 1569 58)" fill="white"/>
</clipPath>
<clipPath id="clip43_24_2">
<rect width="12" height="12" rx="6" transform="matrix(0 1 1 0 1569 250)" fill="white"/>
</clipPath>
<clipPath id="clip44_24_2">
<rect width="12" height="12" rx="6" transform="matrix(-1 0 0 1 940 58)" fill="white"/>
</clipPath>
<clipPath id="clip45_24_2">
<rect width="12" height="12" rx="6" transform="matrix(0 1 1 0 928 58)" fill="white"/>
</clipPath>
<clipPath id="clip46_24_2">
<rect width="71.88" height="71.88" fill="white" transform="translate(840 279.827) rotate(-45)"/>
</clipPath>
<clipPath id="clip47_24_2">
<rect width="71.88" height="71.88" rx="4" transform="matrix(0.707107 -0.707107 -0.707107 -0.707107 890.912 330.739)" fill="white"/>
</clipPath>
<clipPath id="clip48_24_2">
<rect x="852.3" y="273.912" width="12" height="12" rx="6" fill="white"/>
</clipPath>
<clipPath id="clip49_24_2">
<rect x="884.912" y="241.3" width="12" height="12" rx="6" fill="white"/>
</clipPath>
<clipPath id="clip50_24_2">
<rect x="917.523" y="273.912" width="12" height="12" rx="6" fill="white"/>
</clipPath>
<clipPath id="clip51_24_2">
<rect x="884.912" y="306.524" width="12" height="12" rx="6" fill="white"/>
</clipPath>
<clipPath id="clip52_24_2">
<rect width="8" height="8" rx="4" transform="matrix(0 1 1 0 1415 228)" fill="white"/>
</clipPath>
<clipPath id="clip53_24_2">
<rect width="8" height="8" rx="4" transform="matrix(0 1 1 0 1461 139)" fill="white"/>
</clipPath>
</defs>
</svg>
