<svg width="640" height="512" viewBox="0 0 640 512" fill="none" xmlns="http://www.w3.org/2000/svg">
<path d="M308.5 135.3C315.6 129 318.4 119.1 314.7 110.3C312.4 105 309.9 99.8 307.1 94.8L304 89.4C301 84.4 297.7 79.5 294.2 74.8C288.5 67.2 278.5 64.7 269.5 67.7L241.3 77C230.6 68.2 218.3 61 205.1 56.1L199 27.1C197.1 17.8 189.9 10.4 180.5 9.3C173.9 8.4 167.2 8 160.4 8H159.7C152.9 8 146.2 8.4 139.6 9.2C130.2 10.3 123 17.8 121.1 27L115 56.1C101.7 61.1 89.4999 68.2 78.7999 77L50.4999 67.8C41.4999 64.8 31.4999 67.3 25.7999 74.9C22.2999 79.6 18.9999 84.5 15.8999 89.5L12.8999 94.8C10.0999 99.8 7.59993 105 5.29993 110.4C1.59993 119.1 4.39993 129 11.4999 135.4L33.6999 155.2C32.5999 161.9 31.9999 168.9 31.9999 176C31.9999 183.1 32.5999 190.1 33.6999 196.9L11.4999 216.7C4.39993 223 1.59993 232.9 5.29993 241.7C7.59993 247 10.0999 252.2 12.8999 257.3L15.8999 262.5C18.8999 267.6 22.1999 272.4 25.7999 277.1C31.4999 284.7 41.4999 287.2 50.4999 284.2L78.6999 274.9C89.3999 283.7 101.7 290.9 114.9 295.8L121 324.9C122.9 334.2 130.1 341.6 139.5 342.7C146.2 343.5 153 343.9 159.9 343.9C166.8 343.9 173.6 343.5 180.3 342.7C189.7 341.6 196.9 334.1 198.8 324.9L204.9 295.8C218.2 290.8 230.4 283.7 241.1 274.9L269.3 284.2C278.3 287.2 288.3 284.7 294 277.1C297.5 272.4 300.8 267.6 303.8 262.5L306.9 257.1C309.7 252.1 312.2 246.9 314.5 241.6C318.2 232.9 315.4 223 308.3 216.6L286.1 196.8C287.2 190 287.8 183 287.8 175.9C287.8 168.8 287.2 161.8 286.1 155L308.3 135.2L308.5 135.3ZM112 176C112 163.27 117.057 151.061 126.059 142.059C135.061 133.057 147.27 128 160 128C172.73 128 184.939 133.057 193.941 142.059C202.943 151.061 208 163.27 208 176C208 188.73 202.943 200.939 193.941 209.941C184.939 218.943 172.73 224 160 224C147.27 224 135.061 218.943 126.059 209.941C117.057 200.939 112 188.73 112 176ZM504.7 500.5C511 507.6 520.9 510.4 529.7 506.7C535 504.4 540.2 501.9 545.2 499.1L550.6 496C555.6 493 560.5 489.7 565.2 486.2C572.8 480.5 575.3 470.5 572.3 461.5L563 433.3C571.8 422.6 579 410.3 583.9 397.1L613 391C622.3 389.1 629.7 381.9 630.8 372.5C631.6 365.8 632 359 632 352.1C632 345.2 631.6 338.4 630.8 331.7C629.7 322.3 622.2 315.1 613 313.2L583.9 307C578.9 293.7 571.8 281.5 563 270.8L572.3 242.6C575.3 233.6 572.8 223.6 565.2 217.9C560.5 214.4 555.6 211.1 550.6 208L545.3 205C540.3 202.2 535.1 199.7 529.7 197.4C521 193.7 511.1 196.5 504.7 203.6L484.9 225.8C478.1 224.7 471.1 224.1 464 224.1C456.9 224.1 449.9 224.7 443.1 225.8L423.3 203.6C417 196.5 407.1 193.7 398.3 197.4C393 199.7 387.8 202.2 382.7 205L377.5 208C372.4 211 367.6 214.3 362.9 217.9C355.3 223.6 352.8 233.6 355.8 242.6L365.1 270.8C356.3 281.5 349.1 293.8 344.2 307L315.1 313C305.8 314.9 298.4 322.1 297.3 331.5C296.5 338.2 296.1 345 296.1 351.9C296.1 358.8 296.5 365.6 297.3 372.3C298.4 381.7 305.9 388.9 315.1 390.8L344.2 396.9C349.2 410.2 356.3 422.4 365.1 433.1L355.8 461.3C352.8 470.3 355.3 480.3 362.9 486C367.6 489.5 372.4 492.8 377.5 495.8L382.9 498.9C387.9 501.7 393.1 504.2 398.4 506.5C407.1 510.2 417 507.4 423.4 500.3L443.2 478.1C450 479.2 457 479.8 464.1 479.8C471.2 479.8 478.2 479.2 485 478.1L504.8 500.3L504.7 500.5ZM464 304C470.303 304 476.545 305.242 482.369 307.654C488.192 310.066 493.484 313.602 497.941 318.059C502.398 322.516 505.934 327.808 508.346 333.631C510.758 339.455 512 345.697 512 352C512 358.303 510.758 364.545 508.346 370.369C505.934 376.192 502.398 381.484 497.941 385.941C493.484 390.398 488.192 393.934 482.369 396.346C476.545 398.758 470.303 400 464 400C457.696 400 451.455 398.758 445.631 396.346C439.808 393.934 434.516 390.398 430.059 385.941C425.602 381.484 422.066 376.192 419.654 370.369C417.241 364.545 416 358.303 416 352C416 345.697 417.241 339.455 419.654 333.631C422.066 327.808 425.602 322.516 430.059 318.059C434.516 313.602 439.808 310.066 445.631 307.654C451.455 305.242 457.696 304 464 304Z" fill="#D4AF37"/>
</svg>
