<svg width="559" height="313" viewBox="0 0 559 313" fill="none" xmlns="http://www.w3.org/2000/svg">
<g clip-path="url(#clip0_38_216)">
<path d="M55 313C56.1046 313 57 312.105 57 311V306H33V309C33 311.209 34.7909 313 37 313H55Z" fill="#A52A2A"/>
<path d="M87 313C88.1046 313 89 312.105 89 311V306H65V311C65 312.105 65.8954 313 67 313H87Z" fill="#343434"/>
<path d="M119 313C120.105 313 121 312.105 121 311V306H97V311C97 312.105 97.8954 313 99 313H119Z" fill="#343434"/>
<path d="M554 250H548V201H554V250Z" fill="#343434"/>
<path d="M559 207H548V204H559V207Z" fill="#555555"/>
<path d="M559 212H548V209H559V212Z" fill="#555555"/>
<path d="M559 217H548V214H559V217Z" fill="#555555"/>
<path d="M559 222H548V219H559V222Z" fill="#555555"/>
<path d="M559 227H548V224H559V227Z" fill="#555555"/>
<path d="M559 232H548V229H559V232Z" fill="#555555"/>
<path d="M559 237H548V234H559V237Z" fill="#555555"/>
<path d="M559 242H548V239H559V242Z" fill="#555555"/>
<path d="M559 247H548V244H559V247Z" fill="#555555"/>
<path d="M551.5 192.5H541.5V187C541.5 184.515 543.515 182.5 546 182.5H547C549.485 182.5 551.5 184.515 551.5 187V192.5Z" fill="#343434"/>
<path d="M551.5 192.5H541.5V187C541.5 184.515 543.515 182.5 546 182.5H547C549.485 182.5 551.5 184.515 551.5 187V192.5Z" stroke="#555555" stroke-width="3"/>
<mask id="path-15-inside-1_38_216" fill="white">
<path d="M559 262C559 268.627 553.627 274 547 274H535V249H559V262Z"/>
</mask>
<path d="M559 262C559 268.627 553.627 274 547 274H535V249H559V262Z" fill="#343434"/>
<path d="M560 262C560 269.18 554.18 275 547 275H535V273H547C553.075 273 558 268.075 558 262H560ZM535 248H560L558 250H535V248ZM560 248V262C560 269.18 554.18 275 547 275V273C553.075 273 558 268.075 558 262V250L560 248ZM535 274V249V274Z" fill="#555555" mask="url(#path-15-inside-1_38_216)"/>
<mask id="path-17-inside-2_38_216" fill="white">
<path d="M559 202H535V190H557C558.105 190 559 190.895 559 192V202Z"/>
</mask>
<path d="M559 202H535V190H557C558.105 190 559 190.895 559 192V202Z" fill="#343434"/>
<path d="M560 203H535V201H558L560 203ZM535 189H557C558.657 189 560 190.343 560 192H558C558 191.448 557.552 191 557 191H535V189ZM557 189C558.657 189 560 190.343 560 192V203L558 201V192C558 191.448 557.552 191 557 191V189ZM535 202V190V202Z" fill="#555555" mask="url(#path-17-inside-2_38_216)"/>
<path d="M549 250H535V201H549V250Z" fill="#343434"/>
<path d="M548.5 201V250H549.5V201H548.5Z" fill="#555555"/>
<g clip-path="url(#clip1_38_216)">
<mask id="path-21-inside-3_38_216" fill="white">
<path d="M536 34V273H0V34L536 34Z"/>
</mask>
<path d="M536 34V273H0V34L536 34Z" fill="#343434"/>
<rect width="238" height="468" transform="matrix(0 1 -1 0 502 34)" fill="#242124"/>
</g>
<path d="M532 34V273H540V34H532ZM4 273V34H-4V273H4Z" fill="#555555" mask="url(#path-21-inside-3_38_216)"/>
<g clip-path="url(#clip2_38_216)">
<mask id="path-23-inside-4_38_216" fill="white">
<path d="M536 272V303C536 305.209 534.209 307 532 307H4C1.79083 307 0 305.209 0 303V272L536 272Z"/>
</mask>
<path d="M536 272V303C536 305.209 534.209 307 532 307H4C1.79083 307 0 305.209 0 303V272L536 272Z" fill="#343434"/>
<g clip-path="url(#clip3_38_216)">
<rect x="524" y="283" width="12" height="12" rx="6" transform="rotate(90 524 283)" fill="#343434"/>
<rect x="524" y="288" width="2" height="12" transform="rotate(90 524 288)" fill="#555555"/>
<rect x="519" y="283" width="12" height="2" transform="rotate(90 519 283)" fill="#555555"/>
</g>
<rect x="523.5" y="283.5" width="11" height="11" rx="5.5" transform="rotate(90 523.5 283.5)" stroke="#343434"/>
<g clip-path="url(#clip4_38_216)">
<rect x="512" y="283" width="12" height="12" rx="6" fill="#555555"/>
<rect x="517" y="283" width="2" height="12" fill="#343434"/>
<rect x="512" y="288" width="12" height="2" fill="#343434"/>
</g>
<rect x="512.5" y="283.5" width="11" height="11" rx="5.5" stroke="#555555"/>
<g clip-path="url(#clip5_38_216)">
<rect x="12" y="283" width="12" height="12" rx="6" fill="#555555"/>
<rect x="17" y="283" width="2" height="12" fill="#343434"/>
<rect x="12" y="288" width="12" height="2" fill="#343434"/>
</g>
<rect x="12.5" y="283.5" width="11" height="11" rx="5.5" stroke="#555555"/>
<g filter="url(#filter0_d_38_216)">
<path d="M392 287C393.105 287 394 287.895 394 289C394 290.105 393.105 291 392 291H360C358.895 291 358 290.105 358 289C358 287.895 358.895 287 360 287H392Z" fill="#008B8B"/>
<path d="M394 287V291V287ZM358 291V287V291ZM358 287H394H358ZM394 289C394 290.381 392.881 291.5 391.5 291.5H360.5C359.119 291.5 358 290.381 358 289C358 289.828 358.895 290.5 360 290.5H392C393.105 290.5 394 289.828 394 289Z" fill="#F2F3F4"/>
</g>
<g filter="url(#filter1_d_38_216)">
<path d="M176 287C177.105 287 178 287.895 178 289C178 290.105 177.105 291 176 291H144C142.895 291 142 290.105 142 289C142 287.895 142.895 287 144 287H176Z" fill="#008B8B"/>
<path d="M178 287V291V287ZM142 291V287V291ZM142 287H178H142ZM178 289C178 290.381 176.881 291.5 175.5 291.5H144.5C143.119 291.5 142 290.381 142 289C142 289.828 142.895 290.5 144 290.5H176C177.105 290.5 178 289.828 178 289Z" fill="#F2F3F4"/>
</g>
<path d="M302 278C306.418 278 310 281.582 310 286V297C310 298.105 309.105 299 308 299H228C226.895 299 226 298.105 226 297V286C226 281.582 229.582 278 234 278H302Z" fill="#242124"/>
</g>
<path d="M540 272V303C540 307.418 536.418 311 532 311V303V272H540ZM4 311C-0.418274 311 -4 307.418 -4 303V272H4V303V311ZM0 272L536 272L0 272ZM540 303C540 307.418 536.418 311 532 311H4C-0.418274 311 -4 307.418 -4 303H4H532H540Z" fill="#555555" mask="url(#path-23-inside-4_38_216)"/>
<g clip-path="url(#clip6_38_216)">
<mask id="path-42-inside-5_38_216" fill="white">
<path d="M536 35V4C536 1.79086 534.209 0 532 0L4 0C1.79083 0 0 1.79086 0 4V35L536 35Z"/>
</mask>
<path d="M536 35V4C536 1.79086 534.209 0 532 0L4 0C1.79083 0 0 1.79086 0 4V35L536 35Z" fill="#343434"/>
<g clip-path="url(#clip7_38_216)">
<rect width="12" height="12" rx="6" transform="matrix(0 -1 -1 0 524 24)" fill="#343434"/>
<rect width="2" height="12" transform="matrix(0 -1 -1 0 524 19)" fill="#555555"/>
<rect width="12" height="2" transform="matrix(0 -1 -1 0 519 24)" fill="#555555"/>
</g>
<rect x="-0.5" y="-0.5" width="11" height="11" rx="5.5" transform="matrix(0 -1 -1 0 523 23)" stroke="#343434"/>
<g clip-path="url(#clip8_38_216)">
<rect width="12" height="12" rx="6" transform="matrix(1 0 0 -1 512 24)" fill="#555555"/>
<rect width="2" height="12" transform="matrix(1 0 0 -1 517 24)" fill="#343434"/>
<rect width="12" height="2" transform="matrix(1 0 0 -1 512 19)" fill="#343434"/>
</g>
<rect x="0.5" y="-0.5" width="11" height="11" rx="5.5" transform="matrix(1 0 0 -1 512 23)" stroke="#555555"/>
<g clip-path="url(#clip9_38_216)">
<rect width="12" height="12" rx="6" transform="matrix(1 0 0 -1 262 24)" fill="#555555"/>
<rect width="2" height="12" transform="matrix(1 0 0 -1 267 24)" fill="#343434"/>
<rect width="12" height="2" transform="matrix(1 0 0 -1 262 19)" fill="#343434"/>
</g>
<rect x="0.5" y="-0.5" width="11" height="11" rx="5.5" transform="matrix(1 0 0 -1 262 23)" stroke="#555555"/>
<g clip-path="url(#clip10_38_216)">
<rect x="12" y="11" width="12" height="12" rx="6" fill="#555555"/>
<rect x="17" y="11" width="2" height="12" fill="#343434"/>
<rect x="12" y="16" width="12" height="2" fill="#343434"/>
</g>
<rect x="12.5" y="11.5" width="11" height="11" rx="5.5" stroke="#555555"/>
</g>
<path d="M540 35V4C540 -0.418278 536.418 -4 532 -4V4V35H540ZM4 -4C-0.418274 -4 -4 -0.418278 -4 4V35H4V4V-4ZM0 35L536 35L0 35ZM540 4C540 -0.418278 536.418 -4 532 -4L4 -4C-0.418274 -4 -4 -0.418278 -4 4H4L532 4H540Z" fill="#555555" mask="url(#path-42-inside-5_38_216)"/>
<rect width="2" height="470" transform="matrix(0 1 -1 0 503 34)" fill="#555555"/>
<rect width="2" height="470" transform="matrix(0 1 -1 0 503 272)" fill="#555555"/>
<rect width="240" height="2" transform="matrix(0 1 -1 0 503 34)" fill="#555555"/>
<rect width="240" height="2" transform="matrix(0 1 -1 0 35 34)" fill="#555555"/>
</g>
<defs>
<filter id="filter0_d_38_216" x="354" y="283" width="44" height="12.5" filterUnits="userSpaceOnUse" color-interpolation-filters="sRGB">
<feFlood flood-opacity="0" result="BackgroundImageFix"/>
<feColorMatrix in="SourceAlpha" type="matrix" values="0 0 0 0 0 0 0 0 0 0 0 0 0 0 0 0 0 0 127 0" result="hardAlpha"/>
<feOffset/>
<feGaussianBlur stdDeviation="2"/>
<feComposite in2="hardAlpha" operator="out"/>
<feColorMatrix type="matrix" values="0 0 0 0 0 0 0 0 0 0.545098 0 0 0 0 0.545098 0 0 0 1 0"/>
<feBlend mode="normal" in2="BackgroundImageFix" result="effect1_dropShadow_38_216"/>
<feBlend mode="normal" in="SourceGraphic" in2="effect1_dropShadow_38_216" result="shape"/>
</filter>
<filter id="filter1_d_38_216" x="138" y="283" width="44" height="12.5" filterUnits="userSpaceOnUse" color-interpolation-filters="sRGB">
<feFlood flood-opacity="0" result="BackgroundImageFix"/>
<feColorMatrix in="SourceAlpha" type="matrix" values="0 0 0 0 0 0 0 0 0 0 0 0 0 0 0 0 0 0 127 0" result="hardAlpha"/>
<feOffset/>
<feGaussianBlur stdDeviation="2"/>
<feComposite in2="hardAlpha" operator="out"/>
<feColorMatrix type="matrix" values="0 0 0 0 0 0 0 0 0 0.545098 0 0 0 0 0.545098 0 0 0 1 0"/>
<feBlend mode="normal" in2="BackgroundImageFix" result="effect1_dropShadow_38_216"/>
<feBlend mode="normal" in="SourceGraphic" in2="effect1_dropShadow_38_216" result="shape"/>
</filter>
<clipPath id="clip0_38_216">
<rect width="559" height="313" fill="white" transform="matrix(-1 0 0 1 559 0)"/>
</clipPath>
<clipPath id="clip1_38_216">
<path d="M536 34V273H0V34L536 34Z" fill="white"/>
</clipPath>
<clipPath id="clip2_38_216">
<path d="M536 272V303C536 305.209 534.209 307 532 307H4C1.79083 307 0 305.209 0 303V272L536 272Z" fill="white"/>
</clipPath>
<clipPath id="clip3_38_216">
<rect x="524" y="283" width="12" height="12" rx="6" transform="rotate(90 524 283)" fill="white"/>
</clipPath>
<clipPath id="clip4_38_216">
<rect x="512" y="283" width="12" height="12" rx="6" fill="white"/>
</clipPath>
<clipPath id="clip5_38_216">
<rect x="12" y="283" width="12" height="12" rx="6" fill="white"/>
</clipPath>
<clipPath id="clip6_38_216">
<path d="M536 35V4C536 1.79086 534.209 0 532 0L4 0C1.79083 0 0 1.79086 0 4V35L536 35Z" fill="white"/>
</clipPath>
<clipPath id="clip7_38_216">
<rect width="12" height="12" rx="6" transform="matrix(0 -1 -1 0 524 24)" fill="white"/>
</clipPath>
<clipPath id="clip8_38_216">
<rect width="12" height="12" rx="6" transform="matrix(1 0 0 -1 512 24)" fill="white"/>
</clipPath>
<clipPath id="clip9_38_216">
<rect width="12" height="12" rx="6" transform="matrix(1 0 0 -1 262 24)" fill="white"/>
</clipPath>
<clipPath id="clip10_38_216">
<rect x="12" y="11" width="12" height="12" rx="6" fill="white"/>
</clipPath>
</defs>
</svg>
