<svg width="512" height="512" viewBox="0 0 512 512" fill="none" xmlns="http://www.w3.org/2000/svg">
<g clip-path="url(#clip0_216_91)">
<path d="M256 64C281.214 64 306.181 68.9662 329.475 78.6151C352.77 88.264 373.936 102.407 391.764 120.235C409.593 138.064 423.736 159.23 433.385 182.525C443.034 205.819 448 230.786 448 256C448 281.214 443.034 306.181 433.385 329.475C423.736 352.77 409.593 373.936 391.764 391.764C373.936 409.593 352.77 423.736 329.475 433.385C306.181 443.034 281.214 448 256 448C230.786 448 205.819 443.034 182.525 433.385C159.23 423.736 138.064 409.593 120.235 391.764C102.407 373.936 88.264 352.77 78.6151 329.475C68.9662 306.181 64 281.214 64 256C64 230.786 68.9662 205.819 78.6151 182.525C88.264 159.23 102.407 138.064 120.235 120.235C138.064 102.407 159.23 88.264 182.525 78.6151C205.819 68.9662 230.786 64 256 64ZM256 512C323.895 512 389.01 485.029 437.019 437.019C485.029 389.01 512 323.895 512 256C512 188.105 485.029 122.99 437.019 74.9807C389.01 26.9714 323.895 0 256 0C188.105 0 122.99 26.9714 74.9807 74.9807C26.9714 122.99 0 188.105 0 256C0 323.895 26.9714 389.01 74.9807 437.019C122.99 485.029 188.105 512 256 512ZM200 256C200 235.3 211.3 217.2 228 207.5L192 145.2C183.2 129.9 163.3 124.4 150 136.2C124.4 158.8 106.1 189.5 99.1 224.3C95.7 241.5 110.3 256 128 256H200ZM228 304.5L192 366.9C183.2 382.2 188.4 402.1 205.1 407.7C221.1 413.1 238.2 416 256 416C273.8 416 290.9 413.1 306.9 407.7C323.6 402.1 328.8 382.2 320 366.9L284 304.5C275.8 309.3 266.2 312 256 312C245.8 312 236.2 309.3 228 304.5ZM312 256H384C401.7 256 416.3 241.5 412.8 224.2C405.8 189.4 387.5 158.7 361.9 136.1C348.7 124.4 328.8 129.8 319.9 145.1L283.9 207.4C300.6 217.1 311.9 235.2 311.9 255.9L312 256ZM256 288C264.487 288 272.626 284.629 278.627 278.627C284.629 272.626 288 264.487 288 256C288 247.513 284.629 239.374 278.627 233.373C272.626 227.371 264.487 224 256 224C247.513 224 239.374 227.371 233.373 233.373C227.371 239.374 224 247.513 224 256C224 264.487 227.371 272.626 233.373 278.627C239.374 284.629 247.513 288 256 288Z" fill="#242124"/>
</g>
<defs>
<clipPath id="clip0_216_91">
<rect width="512" height="512" fill="white"/>
</clipPath>
</defs>
</svg>
